Urbanist-Italic.ufo
<glyph name="exclam" format="2">
	<advance width="368"/>
	<unicode hex="0021"/>
	<outline>
		<contour>
			<point x="88" y="420" type="line"/>
			<point x="219" y="420" type="line"/>
			<point x="356" y="1400" type="line"/>
			<point x="225" y="1400" type="line"/>
		</contour>
		<contour>
			<point x="99" y="-26" type="curve" smooth="yes"/>
			<point x="141" y="-26"/>
			<point x="179" y="7"/>
			<point x="185" y="52" type="curve" smooth="yes"/>
			<point x="192" y="101"/>
			<point x="156" y="143"/>
			<point x="106" y="143" type="curve" smooth="yes"/>
			<point x="63" y="143"/>
			<point x="25" y="110"/>
			<point x="19" y="68" type="curve" smooth="yes"/>
			<point x="12" y="16"/>
			<point x="48" y="-26"/>
		</contour>
	</outline>
</glyph>
<glyph name="numbersign" format="2">
	<advance width="1517.25"/>
	<unicode hex="0023"/>
	<outline>
		<contour>
			<point x="1458" y="924" type="line"/>
			<point x="1518" y="1069" type="line"/>
			<point x="1320" y="1069" type="line"/>
			<point x="1455" y="1400" type="line"/>
			<point x="1303" y="1400" type="line"/>
			<point x="1169" y="1069" type="line"/>
			<point x="707" y="1069" type="line"/>
			<point x="843" y="1400" type="line"/>
			<point x="691" y="1400" type="line"/>
			<point x="556" y="1069" type="line"/>
			<point x="357" y="1069" type="line"/>
			<point x="296" y="924" type="line"/>
			<point x="496" y="924" type="line"/>
			<point x="313" y="478" type="line"/>
			<point x="115" y="478" type="line"/>
			<point x="55" y="333" type="line"/>
			<point x="255" y="333" type="line"/>
			<point x="119" y="0" type="line"/>
			<point x="271" y="0" type="line"/>
			<point x="407" y="333" type="line"/>
			<point x="867" y="333" type="line"/>
			<point x="731" y="0" type="line"/>
			<point x="883" y="0" type="line"/>
			<point x="1019" y="333" type="line"/>
			<point x="1217" y="333" type="line"/>
			<point x="1277" y="478" type="line"/>
			<point x="1077" y="478" type="line"/>
			<point x="1260" y="924" type="line"/>
		</contour>
		<contour>
			<point x="925" y="478" type="line"/>
			<point x="465" y="478" type="line"/>
			<point x="648" y="924" type="line"/>
			<point x="1108" y="924" type="line"/>
		</contour>
	</outline>
</glyph>
<glyph name="dollar" format="2">
	<advance width="1182.75"/>
	<unicode hex="0024"/>
	<outline>
		<contour>
			<point x="707" y="1270" type="curve"/>
			<point x="866" y="1270"/>
			<point x="1018" y="1202"/>
			<point x="1044" y="1081" type="curve"/>
			<point x="1190" y="1123" type="line"/>
			<point x="1149" y="1295"/>
			<point x="968" y="1402"/>
			<point x="773" y="1417" type="curve"/>
			<point x="806" y="1624" type="line"/>
			<point x="694" y="1624" type="line"/>
			<point x="661" y="1418" type="line"/>
			<point x="414" y="1398"/>
			<point x="191" y="1251"/>
			<point x="161" y="1030" type="curve"/>
			<point x="124" y="766"/>
			<point x="331" y="672"/>
			<point x="617" y="624" type="curve"/>
			<point x="785" y="592"/>
			<point x="951" y="532"/>
			<point x="930" y="382" type="curve"/>
			<point x="908" y="227"/>
			<point x="720" y="124"/>
			<point x="529" y="124" type="curve"/>
			<point x="371" y="124"/>
			<point x="219" y="194"/>
			<point x="193" y="314" type="curve"/>
			<point x="49" y="270" type="line"/>
			<point x="86" y="103"/>
			<point x="263" y="-7"/>
			<point x="467" y="-23" type="curve"/>
			<point x="434" y="-224" type="line"/>
			<point x="546" y="-224" type="line"/>
			<point x="579" y="-23" type="line"/>
			<point x="825" y="-2"/>
			<point x="1046" y="144"/>
			<point x="1077" y="365" type="curve"/>
			<point x="1111" y="607"/>
			<point x="888" y="729"/>
			<point x="621" y="773" type="curve"/>
			<point x="429" y="810"/>
			<point x="285" y="842"/>
			<point x="309" y="1014" type="curve"/>
			<point x="330" y="1166"/>
			<point x="517" y="1271"/>
		</contour>
	</outline>
</glyph>
<glyph name="parenleft" format="2">
	<advance width="653.75"/>
	<unicode hex="0028"/>
	<outline>
		<contour>
			<point x="321" y="-109" type="curve"/>
			<point x="465" y="-115" type="line"/>
			<point x="324" y="66"/>
			<point x="253" y="325"/>
			<point x="289" y="636" type="curve"/>
			<point x="337" y="923"/>
			<point x="496" y="1242"/>
			<point x="683" y="1398" type="curve"/>
			<point x="527" y="1402" type="line"/>
			<point x="325" y="1271"/>
			<point x="178" y="914"/>
			<point x="142" y="652" type="curve" smooth="yes"/>
			<point x="100" y="354"/>
			<point x="145" y="81"/>
		</contour>
	</outline>
</glyph>
<glyph name="asterisk" format="2">
	<advance width="706.5"/>
	<unicode hex="002A"/>
	<outline>
		<contour>
			<point x="268" y="851" type="line"/>
			<point x="415" y="1020" type="line"/>
			<point x="512" y="851" type="line"/>
			<point x="610" y="918" type="line"/>
			<point x="510" y="1085" type="line"/>
			<point x="717" y="1149" type="line"/>
			<point x="697" y="1256" type="line"/>
			<point x="491" y="1193" type="line"/>
			<point x="521" y="1400" type="line"/>
			<point x="408" y="1400" type="line"/>
			<point x="379" y="1193" type="line"/>
			<point x="188" y="1256" type="line"/>
			<point x="140" y="1149" type="line"/>
			<point x="328" y="1085" type="line"/>
			<point x="182" y="918" type="line"/>
		</contour>
	</outline>
</glyph>
<glyph name="plus" format="2">
	<advance width="1160"/>
	<unicode hex="002B"/>
	<outline>
		<contour>
			<point x="449" y="100" type="line"/>
			<point x="599" y="100" type="line"/>
			<point x="659" y="525" type="line"/>
			<point x="1084" y="525" type="line"/>
			<point x="1104" y="675" type="line"/>
			<point x="679" y="675" type="line"/>
			<point x="739" y="1100" type="line"/>
			<point x="589" y="1100" type="line"/>
			<point x="529" y="675" type="line"/>
			<point x="104" y="675" type="line"/>
			<point x="84" y="525" type="line"/>
			<point x="509" y="525" type="line"/>
		</contour>
	</outline>
</glyph>
<glyph name="comma" format="2">
	<advance width="412"/>
	<unicode hex="002C"/>
	<outline>
		<contour>
			<point x="-6" y="-112" type="line"/>
			<point x="95" y="-112" type="line"/>
			<point x="255" y="226" type="line"/>
			<point x="103" y="226" type="line"/>
		</contour>
	</outline>
</glyph>
<glyph name="hyphen" format="2">
	<advance width="880"/>
	<unicode hex="002D"/>
	<outline>
		<contour>
			<point x="144" y="675" type="line"/>
			<point x="124" y="525" type="line"/>
			<point x="764" y="525" type="line"/>
			<point x="784" y="675" type="line"/>
		</contour>
	</outline>
</glyph>
<glyph name="period" format="2">
	<advance width="368.75"/>
	<unicode hex="002E"/>
	<outline>
		<contour>
			<point x="98" y="-26" type="curve" smooth="yes"/>
			<point x="141" y="-26"/>
			<point x="180" y="7"/>
			<point x="186" y="51" type="curve" smooth="yes"/>
			<point x="193" y="101"/>
			<point x="156" y="143"/>
			<point x="105" y="143" type="curve" smooth="yes"/>
			<point x="63" y="143"/>
			<point x="25" y="109"/>
			<point x="19" y="67" type="curve" smooth="yes"/>
			<point x="12" y="16"/>
			<point x="48" y="-26"/>
		</contour>
	</outline>
</glyph>
<glyph name="slash" format="2">
	<advance width="714.75"/>
	<unicode hex="002F"/>
	<outline>
		<contour>
			<point x="763" y="1400" type="line"/>
			<point x="610" y="1400" type="line"/>
			<point x="-7" y="-112" type="line"/>
			<point x="145" y="-112" type="line"/>
		</contour>
	</outline>
</glyph>
<glyph name="zero" format="2">
	<advance width="1193"/>
	<unicode hex="0030"/>
	<outline>
		<contour>
			<point x="532" y="-26" type="curve" smooth="yes"/>
			<point x="860" y="-26"/>
			<point x="1105" y="296"/>
			<point x="1160" y="692" type="curve" smooth="yes"/>
			<point x="1217" y="1097"/>
			<point x="1056" y="1426"/>
			<point x="719" y="1426" type="curve" smooth="yes"/>
			<point x="390" y="1426"/>
			<point x="145" y="1106"/>
			<point x="89" y="708" type="curve" smooth="yes"/>
			<point x="32" y="304"/>
			<point x="194" y="-26"/>
		</contour>
		<contour>
			<point x="536" y="124" type="curve" smooth="yes"/>
			<point x="282" y="124"/>
			<point x="186" y="385"/>
			<point x="230" y="692" type="curve" smooth="yes"/>
			<point x="273" y="1001"/>
			<point x="444" y="1276"/>
			<point x="715" y="1276" type="curve" smooth="yes"/>
			<point x="963" y="1276"/>
			<point x="1065" y="1029"/>
			<point x="1020" y="708" type="curve" smooth="yes"/>
			<point x="976" y="395"/>
			<point x="800" y="124"/>
		</contour>
	</outline>
</glyph>
<glyph name="four" format="2">
	<advance width="1097.75"/>
	<unicode hex="0034"/>
	<outline>
		<contour>
			<point x="613" y="0" type="line"/>
			<point x="763" y="0" type="line"/>
			<point x="818" y="388" type="line"/>
			<point x="962" y="388" type="line"/>
			<point x="983" y="538" type="line"/>
			<point x="838" y="538" type="line"/>
			<point x="959" y="1400" type="line"/>
			<point x="770" y="1400" type="line"/>
			<point x="84" y="540" type="line"/>
			<point x="64" y="388" type="line"/>
			<point x="668" y="388" type="line"/>
		</contour>
		<contour>
			<point x="264" y="540" type="line"/>
			<point x="779" y="1187" type="line"/>
			<point x="688" y="538" type="line"/>
		</contour>
	</outline>
</glyph>
<glyph name="six" format="2">
	<advance width="1078.75"/>
	<unicode hex="0036"/>
	<outline>
		<contour>
			<point x="467" y="-26" type="curve" smooth="yes"/>
			<point x="731" y="-26"/>
			<point x="975" y="188"/>
			<point x="1012" y="451" type="curve" smooth="yes"/>
			<point x="1059" y="782"/>
			<point x="761" y="1006"/>
			<point x="456" y="901" type="curve"/>
			<point x="820" y="1400" type="line"/>
			<point x="642" y="1400" type="line"/>
			<point x="148" y="715" type="line"/>
			<point x="90" y="627"/>
			<point x="59" y="564"/>
			<point x="45" y="467" type="curve" smooth="yes"/>
			<point x="7" y="196"/>
			<point x="199" y="-26"/>
		</contour>
		<contour>
			<point x="472" y="124" type="curve" smooth="yes"/>
			<point x="299" y="124"/>
			<point x="167" y="265"/>
			<point x="193" y="451" type="curve" smooth="yes"/>
			<point x="219" y="632"/>
			<point x="388" y="793"/>
			<point x="585" y="793" type="curve" smooth="yes"/>
			<point x="766" y="793"/>
			<point x="890" y="648"/>
			<point x="864" y="468" type="curve" smooth="yes"/>
			<point x="839" y="289"/>
			<point x="671" y="124"/>
		</contour>
	</outline>
</glyph>
<glyph name="seven" format="2">
	<advance width="1072.25"/>
	<unicode hex="0037"/>
	<outline>
		<contour>
			<point x="66" y="0" type="line"/>
			<point x="241" y="0" type="line"/>
			<point x="1139" y="1250" type="line"/>
			<point x="1158" y="1400" type="line"/>
			<point x="166" y="1400" type="line"/>
			<point x="145" y="1250" type="line"/>
			<point x="962" y="1250" type="line"/>
		</contour>
	</outline>
</glyph>
<glyph name="eight" format="2">
	<advance width="1056.25"/>
	<unicode hex="0038"/>
	<outline>
		<contour>
			<point x="462" y="-26" type="curve" smooth="yes"/>
			<point x="706" y="-26"/>
			<point x="928" y="157"/>
			<point x="960" y="383" type="curve" smooth="yes"/>
			<point x="981" y="534"/>
			<point x="909" y="665"/>
			<point x="791" y="732" type="curve"/>
			<point x="911" y="797"/>
			<point x="999" y="909"/>
			<point x="1016" y="1034" type="curve" smooth="yes"/>
			<point x="1046" y="1249"/>
			<point x="881" y="1426"/>
			<point x="650" y="1426" type="curve" smooth="yes"/>
			<point x="426" y="1426"/>
			<point x="221" y="1258"/>
			<point x="192" y="1050" type="curve" smooth="yes"/>
			<point x="173" y="918"/>
			<point x="235" y="803"/>
			<point x="331" y="742" type="curve"/>
			<point x="190" y="671"/>
			<point x="86" y="543"/>
			<point x="66" y="399" type="curve" smooth="yes"/>
			<point x="33" y="165"/>
			<point x="210" y="-26"/>
		</contour>
		<contour>
			<point x="466" y="124" type="curve" smooth="yes"/>
			<point x="313" y="124"/>
			<point x="202" y="239"/>
			<point x="222" y="383" type="curve" smooth="yes"/>
			<point x="244" y="535"/>
			<point x="396" y="658"/>
			<point x="558" y="658" type="curve" smooth="yes"/>
			<point x="715" y="658"/>
			<point x="823" y="543"/>
			<point x="802" y="399" type="curve" smooth="yes"/>
			<point x="781" y="248"/>
			<point x="631" y="124"/>
		</contour>
		<contour>
			<point x="563" y="808" type="curve" smooth="yes"/>
			<point x="426" y="808"/>
			<point x="332" y="909"/>
			<point x="349" y="1034" type="curve" smooth="yes"/>
			<point x="368" y="1167"/>
			<point x="500" y="1276"/>
			<point x="645" y="1276" type="curve" smooth="yes"/>
			<point x="781" y="1276"/>
			<point x="876" y="1176"/>
			<point x="859" y="1050" type="curve" smooth="yes"/>
			<point x="840" y="917"/>
			<point x="708" y="808"/>
		</contour>
	</outline>
</glyph>
<glyph name="nine" format="2">
	<advance width="1057.5"/>
	<unicode hex="0039"/>
	<outline>
		<contour>
			<point x="274" y="0" type="line"/>
			<point x="450" y="0" type="line"/>
			<point x="961" y="709" type="line"/>
			<point x="1017" y="795"/>
			<point x="1048" y="855"/>
			<point x="1061" y="948" type="curve" smooth="yes"/>
			<point x="1097" y="1210"/>
			<point x="911" y="1426"/>
			<point x="651" y="1426" type="curve" smooth="yes"/>
			<point x="396" y="1426"/>
			<point x="161" y="1218"/>
			<point x="125" y="964" type="curve" smooth="yes"/>
			<point x="81" y="646"/>
			<point x="366" y="429"/>
			<point x="660" y="528" type="curve"/>
		</contour>
		<contour>
			<point x="538" y="636" type="curve" smooth="yes"/>
			<point x="365" y="636"/>
			<point x="247" y="775"/>
			<point x="271" y="947" type="curve" smooth="yes"/>
			<point x="295" y="1120"/>
			<point x="456" y="1277"/>
			<point x="647" y="1277" type="curve" smooth="yes"/>
			<point x="813" y="1277"/>
			<point x="939" y="1143"/>
			<point x="914" y="964" type="curve" smooth="yes"/>
			<point x="890" y="791"/>
			<point x="727" y="636"/>
		</contour>
	</outline>
</glyph>
<glyph name="colon" format="2">
	<advance width="368.75"/>
	<unicode hex="003A"/>
	<outline>
		<contour>
			<point x="219" y="831" type="curve" smooth="yes"/>
			<point x="261" y="831"/>
			<point x="300" y="864"/>
			<point x="306" y="908" type="curve" smooth="yes"/>
			<point x="313" y="958"/>
			<point x="277" y="1000"/>
			<point x="226" y="1000" type="curve" smooth="yes"/>
			<point x="184" y="1000"/>
			<point x="146" y="966"/>
			<point x="140" y="925" type="curve" smooth="yes"/>
			<point x="133" y="873"/>
			<point x="168" y="831"/>
		</contour>
		<contour>
			<point x="98" y="-26" type="curve" smooth="yes"/>
			<point x="141" y="-26"/>
			<point x="180" y="7"/>
			<point x="186" y="51" type="curve" smooth="yes"/>
			<point x="193" y="101"/>
			<point x="156" y="143"/>
			<point x="105" y="143" type="curve" smooth="yes"/>
			<point x="63" y="143"/>
			<point x="25" y="109"/>
			<point x="19" y="67" type="curve" smooth="yes"/>
			<point x="12" y="16"/>
			<point x="48" y="-26"/>
		</contour>
	</outline>
</glyph>
<glyph name="semicolon" format="2">
	<advance width="419.5"/>
	<unicode hex="003B"/>
	<outline>
		<contour>
			<point x="-6" y="-112" type="line"/>
			<point x="95" y="-112" type="line"/>
			<point x="255" y="226" type="line"/>
			<point x="103" y="226" type="line"/>
		</contour>
		<contour>
			<point x="271" y="831" type="curve" smooth="yes"/>
			<point x="312" y="831"/>
			<point x="351" y="864"/>
			<point x="357" y="907" type="curve" smooth="yes"/>
			<point x="364" y="958"/>
			<point x="328" y="1000"/>
			<point x="278" y="1000" type="curve" smooth="yes"/>
			<point x="234" y="1000"/>
			<point x="197" y="966"/>
			<point x="190" y="923" type="curve" smooth="yes"/>
			<point x="184" y="873"/>
			<point x="218" y="831"/>
		</contour>
	</outline>
</glyph>
<glyph name="equal" format="2">
	<advance width="1160"/>
	<unicode hex="003D"/>
	<outline>
		<contour>
			<point x="55" y="322" type="line"/>
			<point x="1055" y="322" type="line"/>
			<point x="1076" y="472" type="line"/>
			<point x="76" y="472" type="line"/>
		</contour>
		<contour>
			<point x="112" y="728" type="line"/>
			<point x="1112" y="728" type="line"/>
			<point x="1133" y="878" type="line"/>
			<point x="133" y="878" type="line"/>
		</contour>
	</outline>
</glyph>
<glyph name="at" format="2">
	<advance width="1740.625"/>
	<unicode hex="0040"/>
	<outline>
		<contour>
			<point x="777" y="-192" type="curve"/>
			<point x="790" y="-42" type="line"/>
			<point x="436" y="-42"/>
			<point x="187" y="193"/>
			<point x="236" y="542" type="curve" smooth="yes"/>
			<point x="286" y="902"/>
			<point x="621" y="1191"/>
			<point x="976" y="1191" type="curve" smooth="yes"/>
			<point x="1324" y="1191"/>
			<point x="1568" y="909"/>
			<point x="1519" y="559" type="curve" smooth="yes"/>
			<point x="1498" y="415"/>
			<point x="1419" y="234"/>
			<point x="1298" y="234" type="curve" smooth="yes"/>
			<point x="1241" y="234"/>
			<point x="1193" y="276"/>
			<point x="1202" y="339" type="curve" smooth="yes"/>
			<point x="1282" y="909" type="line"/>
			<point x="1165" y="928" type="line"/>
			<point x="1147" y="818" type="line"/>
			<point x="1104" y="896"/>
			<point x="1010" y="948"/>
			<point x="896" y="948" type="curve" smooth="yes"/>
			<point x="681" y="948"/>
			<point x="482" y="774"/>
			<point x="452" y="559" type="curve" smooth="yes"/>
			<point x="420" y="335"/>
			<point x="577" y="153"/>
			<point x="801" y="153" type="curve" smooth="yes"/>
			<point x="911" y="153"/>
			<point x="1005" y="202"/>
			<point x="1072" y="287" type="curve"/>
			<point x="1064" y="176"/>
			<point x="1181" y="84"/>
			<point x="1301" y="84" type="curve" smooth="yes"/>
			<point x="1494" y="84"/>
			<point x="1636" y="325"/>
			<point x="1667" y="542" type="curve" smooth="yes"/>
			<point x="1728" y="980"/>
			<point x="1425" y="1341"/>
			<point x="981" y="1341" type="curve" smooth="yes"/>
			<point x="548" y="1341"/>
			<point x="149" y="991"/>
			<point x="88" y="559" type="curve" smooth="yes"/>
			<point x="27" y="119"/>
			<point x="341" y="-192"/>
		</contour>
		<contour>
			<point x="810" y="272" type="curve" smooth="yes"/>
			<point x="664" y="272"/>
			<point x="557" y="390"/>
			<point x="579" y="542" type="curve" smooth="yes"/>
			<point x="601" y="701"/>
			<point x="747" y="828"/>
			<point x="905" y="828" type="curve" smooth="yes"/>
			<point x="1065" y="828"/>
			<point x="1130" y="706"/>
			<point x="1111" y="570" type="curve" smooth="yes"/>
			<point x="1090" y="421"/>
			<point x="968" y="272"/>
		</contour>
	</outline>
</glyph>
<glyph name="A" format="2">
	<advance width="1362.75"/>
	<unicode hex="0041"/>
	<outline>
		<contour>
			<point x="715" y="1400" type="line"/>
			<point x="8" y="0" type="line"/>
			<point x="170" y="0" type="line"/>
			<point x="319" y="295" type="line"/>
			<point x="988" y="295" type="line"/>
			<point x="1054" y="0" type="line"/>
			<point x="1211" y="0" type="line"/>
			<point x="899" y="1400" type="line"/>
		</contour>
		<contour>
			<point x="395" y="445" type="line"/>
			<point x="783" y="1213" type="line"/>
			<point x="954" y="445" type="line"/>
		</contour>
	</outline>
</glyph>
<glyph name="C" format="2">
	<advance width="1398"/>
	<unicode hex="0043"/>
	<outline>
		<contour>
			<point x="682" y="-26" type="curve" smooth="yes"/>
			<point x="904" y="-26"/>
			<point x="1116" y="84"/>
			<point x="1267" y="259" type="curve"/>
			<point x="1139" y="337" type="line"/>
			<point x="1027" y="211"/>
			<point x="861" y="124"/>
			<point x="687" y="124" type="curve" smooth="yes"/>
			<point x="395" y="124"/>
			<point x="193" y="378"/>
			<point x="237" y="692" type="curve" smooth="yes"/>
			<point x="281" y="1008"/>
			<point x="561" y="1276"/>
			<point x="866" y="1276" type="curve" smooth="yes"/>
			<point x="1024" y="1276"/>
			<point x="1168" y="1197"/>
			<point x="1248" y="1068" type="curve"/>
			<point x="1386" y="1134" type="line"/>
			<point x="1283" y="1309"/>
			<point x="1100" y="1426"/>
			<point x="870" y="1426" type="curve" smooth="yes"/>
			<point x="494" y="1426"/>
			<point x="145" y="1105"/>
			<point x="89" y="708" type="curve" smooth="yes"/>
			<point x="32" y="303"/>
			<point x="298" y="-26"/>
		</contour>
	</outline>
</glyph>
<glyph name="G" format="2">
	<advance width="1496.375"/>
	<unicode hex="0047"/>
	<outline>
		<contour>
			<point x="684" y="-26" type="curve" smooth="yes"/>
			<point x="1053" y="-26"/>
			<point x="1398" y="287"/>
			<point x="1461" y="675" type="curve"/>
			<point x="921" y="679" type="line"/>
			<point x="902" y="544" type="line"/>
			<point x="1266" y="548" type="line"/>
			<point x="1172" y="307"/>
			<point x="936" y="124"/>
			<point x="689" y="124" type="curve" smooth="yes"/>
			<point x="395" y="124"/>
			<point x="193" y="378"/>
			<point x="237" y="690" type="curve" smooth="yes"/>
			<point x="282" y="1014"/>
			<point x="568" y="1276"/>
			<point x="868" y="1276" type="curve" smooth="yes"/>
			<point x="1018" y="1276"/>
			<point x="1161" y="1204"/>
			<point x="1248" y="1067" type="curve"/>
			<point x="1387" y="1134" type="line"/>
			<point x="1276" y="1319"/>
			<point x="1090" y="1425"/>
			<point x="873" y="1425" type="curve" smooth="yes"/>
			<point x="505" y="1425"/>
			<point x="147" y="1116"/>
			<point x="90" y="709" type="curve" smooth="yes"/>
			<point x="33" y="306"/>
			<point x="294" y="-26"/>
		</contour>
	</outline>
</glyph>
<glyph name="H" format="2">
	<advance width="1259.75"/>
	<unicode hex="0048"/>
	<outline>
		<contour>
			<point x="1116" y="1400" type="line"/>
			<point x="1035" y="825" type="line"/>
			<point x="315" y="825" type="line"/>
			<point x="396" y="1400" type="line"/>
			<point x="246" y="1400" type="line"/>
			<point x="50" y="0" type="line"/>
			<point x="200" y="0" type="line"/>
			<point x="295" y="675" type="line"/>
			<point x="1014" y="675" type="line"/>
			<point x="920" y="0" type="line"/>
			<point x="1070" y="0" type="line"/>
			<point x="1266" y="1400" type="line"/>
		</contour>
	</outline>
</glyph>
<glyph name="I" format="2">
	<advance width="450"/>
	<unicode hex="0049"/>
	<outline>
		<contour>
			<point x="80" y="0" type="line"/>
			<point x="230" y="0" type="line"/>
			<point x="426" y="1400" type="line"/>
			<point x="276" y="1400" type="line"/>
		</contour>
	</outline>
</glyph>
<glyph name="K" format="2">
	<advance width="1076.25"/>
	<unicode hex="004B"/>
	<outline>
		<contour>
			<point x="960" y="0" type="line"/>
			<point x="516" y="739" type="line"/>
			<point x="1166" y="1400" type="line"/>
			<point x="967" y="1400" type="line"/>
			<point x="299" y="718" type="line"/>
			<point x="396" y="1400" type="line"/>
			<point x="246" y="1400" type="line"/>
			<point x="50" y="0" type="line"/>
			<point x="200" y="0" type="line"/>
			<point x="270" y="484" type="line"/>
			<point x="404" y="621" type="line"/>
			<point x="768" y="0" type="line"/>
		</contour>
	</outline>
</glyph>
<glyph name="M" format="2">
	<advance width="1779"/>
	<unicode hex="004D"/>
	<outline>
		<contour>
			<point x="49" y="0" type="line"/>
			<point x="203" y="0" type="line"/>
			<point x="555" y="1051" type="line"/>
			<point x="784" y="86" type="line"/>
			<point x="881" y="86" type="line"/>
			<point x="1381" y="1051" type="line"/>
			<point x="1436" y="0" type="line"/>
			<point x="1588" y="0" type="line"/>
			<point x="1513" y="1400" type="line"/>
			<point x="1400" y="1400" type="line"/>
			<point x="870" y="383" type="line"/>
			<point x="628" y="1400" type="line"/>
			<point x="516" y="1400" type="line"/>
		</contour>
	</outline>
</glyph>
<glyph name="N" format="2">
	<advance width="1314.75"/>
	<unicode hex="004E"/>
	<outline>
		<contour>
			<point x="69" y="0" type="line"/>
			<point x="219" y="0" type="line"/>
			<point x="379" y="1129" type="line"/>
			<point x="946" y="0" type="line"/>
			<point x="1106" y="0" type="line"/>
			<point x="1302" y="1400" type="line"/>
			<point x="1152" y="1400" type="line"/>
			<point x="992" y="271" type="line"/>
			<point x="426" y="1400" type="line"/>
			<point x="265" y="1400" type="line"/>
		</contour>
	</outline>
</glyph>
<glyph name="O" format="2">
	<advance width="1540"/>
	<unicode hex="004F"/>
	<outline>
		<contour>
			<point x="704" y="-26" type="curve" smooth="yes"/>
			<point x="1080" y="-26"/>
			<point x="1432" y="296"/>
			<point x="1487" y="692" type="curve" smooth="yes"/>
			<point x="1544" y="1096"/>
			<point x="1276" y="1426"/>
			<point x="892" y="1426" type="curve" smooth="yes"/>
			<point x="516" y="1426"/>
			<point x="165" y="1104"/>
			<point x="109" y="708" type="curve" smooth="yes"/>
			<point x="52" y="304"/>
			<point x="320" y="-26"/>
		</contour>
		<contour>
			<point x="709" y="124" type="curve" smooth="yes"/>
			<point x="415" y="124"/>
			<point x="213" y="379"/>
			<point x="257" y="692" type="curve" smooth="yes"/>
			<point x="301" y="1009"/>
			<point x="583" y="1276"/>
			<point x="888" y="1276" type="curve" smooth="yes"/>
			<point x="1181" y="1276"/>
			<point x="1383" y="1020"/>
			<point x="1339" y="708" type="curve" smooth="yes"/>
			<point x="1295" y="392"/>
			<point x="1013" y="124"/>
		</contour>
	</outline>
</glyph>
<glyph name="Q" format="2">
	<advance width="1555.25"/>
	<unicode hex="0051"/>
	<outline>
		<contour>
			<point x="1296" y="-26" type="line"/>
			<point x="1414" y="80" type="line"/>
			<point x="1268" y="245" type="line"/>
			<point x="1384" y="369"/>
			<point x="1462" y="525"/>
			<point x="1486" y="695" type="curve" smooth="yes"/>
			<point x="1543" y="1099"/>
			<point x="1276" y="1429"/>
			<point x="893" y="1429" type="curve" smooth="yes"/>
			<point x="515" y="1429"/>
			<point x="166" y="1107"/>
			<point x="110" y="711" type="curve" smooth="yes"/>
			<point x="53" y="307"/>
			<point x="320" y="-23"/>
			<point x="705" y="-23" type="curve" smooth="yes"/>
			<point x="864" y="-23"/>
			<point x="1021" y="35"/>
			<point x="1153" y="137" type="curve"/>
		</contour>
		<contour>
			<point x="709" y="127" type="curve" smooth="yes"/>
			<point x="417" y="127"/>
			<point x="213" y="382"/>
			<point x="258" y="695" type="curve" smooth="yes"/>
			<point x="302" y="1010"/>
			<point x="583" y="1279"/>
			<point x="888" y="1279" type="curve" smooth="yes"/>
			<point x="1179" y="1279"/>
			<point x="1382" y="1024"/>
			<point x="1339" y="711" type="curve" smooth="yes"/>
			<point x="1320" y="582"/>
			<point x="1261" y="460"/>
			<point x="1172" y="363" type="curve"/>
			<point x="1003" y="555" type="line"/>
			<point x="885" y="448" type="line"/>
			<point x="1055" y="250" type="line"/>
			<point x="955" y="173"/>
			<point x="830" y="127"/>
		</contour>
	</outline>
</glyph>
<glyph name="R" format="2">
	<advance width="1143.5"/>
	<unicode hex="0052"/>
	<outline>
		<contour>
			<point x="69" y="0" type="line"/>
			<point x="219" y="0" type="line"/>
			<point x="300" y="579" type="line"/>
			<point x="548" y="579" type="line"/>
			<point x="802" y="0" type="line"/>
			<point x="973" y="0" type="line"/>
			<point x="717" y="589" type="line"/>
			<point x="904" y="626"/>
			<point x="1058" y="782"/>
			<point x="1087" y="981" type="curve" smooth="yes"/>
			<point x="1119" y="1216"/>
			<point x="966" y="1400"/>
			<point x="742" y="1400" type="curve" smooth="yes"/>
			<point x="265" y="1400" type="line"/>
		</contour>
		<contour>
			<point x="321" y="729" type="line"/>
			<point x="397" y="1267" type="line"/>
			<point x="719" y="1267" type="line" smooth="yes"/>
			<point x="862" y="1267"/>
			<point x="961" y="1155"/>
			<point x="940" y="1006" type="curve" smooth="yes"/>
			<point x="918" y="849"/>
			<point x="778" y="729"/>
			<point x="635" y="729" type="curve" smooth="yes"/>
		</contour>
	</outline>
</glyph>
<glyph name="S" format="2">
	<advance width="1222.75"/>
	<unicode hex="0053"/>
	<outline>
		<contour>
			<point x="545" y="-26" type="curve" smooth="yes"/>
			<point x="811" y="-26"/>
			<point x="1064" y="127"/>
			<point x="1097" y="365" type="curve" smooth="yes"/>
			<point x="1131" y="607"/>
			<point x="908" y="729"/>
			<point x="641" y="773" type="curve" smooth="yes"/>
			<point x="449" y="810"/>
			<point x="305" y="842"/>
			<point x="329" y="1014" type="curve" smooth="yes"/>
			<point x="350" y="1166"/>
			<point x="537" y="1271"/>
			<point x="727" y="1270" type="curve" smooth="yes"/>
			<point x="886" y="1270"/>
			<point x="1038" y="1202"/>
			<point x="1064" y="1081" type="curve"/>
			<point x="1210" y="1123" type="line"/>
			<point x="1165" y="1311"/>
			<point x="954" y="1421"/>
			<point x="732" y="1421" type="curve" smooth="yes"/>
			<point x="469" y="1421"/>
			<point x="215" y="1268"/>
			<point x="181" y="1030" type="curve" smooth="yes"/>
			<point x="144" y="766"/>
			<point x="351" y="672"/>
			<point x="637" y="624" type="curve" smooth="yes"/>
			<point x="805" y="592"/>
			<point x="971" y="532"/>
			<point x="950" y="382" type="curve" smooth="yes"/>
			<point x="928" y="227"/>
			<point x="740" y="124"/>
			<point x="549" y="124" type="curve" smooth="yes"/>
			<point x="391" y="124"/>
			<point x="239" y="194"/>
			<point x="213" y="314" type="curve"/>
			<point x="69" y="270" type="line"/>
			<point x="108" y="88"/>
			<point x="316" y="-26"/>
		</contour>
	</outline>
</glyph>
<glyph name="T" format="2">
	<advance width="1258.75"/>
	<unicode hex="0054"/>
	<outline>
		<contour>
			<point x="1305" y="1400" type="line"/>
			<point x="206" y="1400" type="line"/>
			<point x="185" y="1250" type="line"/>
			<point x="659" y="1250" type="line"/>
			<point x="484" y="0" type="line"/>
			<point x="634" y="0" type="line"/>
			<point x="809" y="1250" type="line"/>
			<point x="1284" y="1250" type="line"/>
		</contour>
	</outline>
</glyph>
<glyph name="X" format="2">
	<advance width="1331"/>
	<unicode hex="0058"/>
	<outline>
		<contour>
			<point x="-12" y="0" type="line"/>
			<point x="178" y="0" type="line"/>
			<point x="680" y="576" type="line"/>
			<point x="1016" y="0" type="line"/>
			<point x="1199" y="0" type="line"/>
			<point x="788" y="704" type="line"/>
			<point x="1395" y="1402" type="line"/>
			<point x="1207" y="1402" type="line"/>
			<point x="709" y="831" type="line"/>
			<point x="374" y="1402" type="line"/>
			<point x="192" y="1402" type="line"/>
			<point x="602" y="704" type="line"/>
		</contour>
	</outline>
</glyph>
<glyph name="bracketleft" format="2">
	<advance width="548.5"/>
	<unicode hex="005B"/>
	<outline>
		<contour>
			<point x="383" y="38" type="line"/>
			<point x="205" y="38" type="line"/>
			<point x="375" y="1250" type="line"/>
			<point x="554" y="1250" type="line"/>
			<point x="575" y="1400" type="line"/>
			<point x="246" y="1400" type="line"/>
			<point x="34" y="-112" type="line"/>
			<point x="363" y="-112" type="line"/>
		</contour>
	</outline>
</glyph>
<glyph name="backslash" format="2">
	<advance width="715.25"/>
	<unicode hex="005C"/>
	<outline>
		<contour>
			<point x="400" y="-112" type="line"/>
			<point x="549" y="-112" type="line"/>
			<point x="355" y="1400" type="line"/>
			<point x="208" y="1400" type="line"/>
		</contour>
	</outline>
</glyph>
<glyph name="c" format="2">
	<advance width="1018.75"/>
	<unicode hex="0063"/>
	<outline>
		<contour>
			<point x="787" y="258" type="line"/>
			<point x="715" y="181"/>
			<point x="609" y="124"/>
			<point x="499" y="124" type="curve"/>
			<point x="309" y="124"/>
			<point x="181" y="290"/>
			<point x="209" y="492" type="curve"/>
			<point x="238" y="700"/>
			<point x="419" y="878"/>
			<point x="622" y="878" type="curve"/>
			<point x="715" y="878"/>
			<point x="808" y="833"/>
			<point x="863" y="749" type="curve"/>
			<point x="1001" y="815" type="line"/>
			<point x="928" y="943"/>
			<point x="793" y="1028"/>
			<point x="626" y="1028" type="curve"/>
			<point x="354" y="1028"/>
			<point x="101" y="796"/>
			<point x="61" y="508" type="curve"/>
			<point x="19" y="214"/>
			<point x="214" y="-26"/>
			<point x="494" y="-26" type="curve"/>
			<point x="653" y="-26"/>
			<point x="808" y="53"/>
			<point x="916" y="180" type="curve"/>
		</contour>
	</outline>
</glyph>
<glyph name="d" format="2">
	<advance width="1217.5"/>
	<unicode hex="0064"/>
	<outline>
		<contour>
			<point x="1077" y="1500" type="line"/>
			<point x="979" y="817" type="line"/>
			<point x="928" y="941"/>
			<point x="818" y="1027"/>
			<point x="652" y="1027" type="curve"/>
			<point x="366" y="1027"/>
			<point x="101" y="796"/>
			<point x="61" y="508" type="curve"/>
			<point x="19" y="214"/>
			<point x="226" y="-26"/>
			<point x="520" y="-26" type="curve"/>
			<point x="678" y="-26"/>
			<point x="808" y="54"/>
			<point x="893" y="177" type="curve"/>
			<point x="866" y="0" type="line"/>
			<point x="1016" y="0" type="line"/>
			<point x="1227" y="1500" type="line"/>
		</contour>
		<contour>
			<point x="526" y="120" type="curve"/>
			<point x="328" y="120"/>
			<point x="182" y="283"/>
			<point x="212" y="492" type="curve"/>
			<point x="242" y="707"/>
			<point x="439" y="882"/>
			<point x="649" y="882" type="curve"/>
			<point x="850" y="882"/>
			<point x="955" y="718"/>
			<point x="925" y="508" type="curve"/>
			<point x="895" y="295"/>
			<point x="738" y="120"/>
		</contour>
	</outline>
</glyph>
<glyph name="f" format="2">
	<advance width="673.25"/>
	<unicode hex="0066"/>
	<outline>
		<contour>
			<point x="440" y="1253" type="line"/>
			<point x="450" y="1318"/>
			<point x="514" y="1374"/>
			<point x="583" y="1374" type="curve"/>
			<point x="613" y="1374"/>
			<point x="642" y="1362"/>
			<point x="660" y="1336" type="curve"/>
			<point x="779" y="1436" type="line"/>
			<point x="733" y="1493"/>
			<point x="666" y="1524"/>
			<point x="591" y="1524" type="curve"/>
			<point x="445" y="1524"/>
			<point x="311" y="1407"/>
			<point x="291" y="1259" type="curve"/>
			<point x="255" y="1000" type="line"/>
			<point x="121" y="1000" type="line"/>
			<point x="99" y="850" type="line"/>
			<point x="233" y="850" type="line"/>
			<point x="114" y="0" type="line"/>
			<point x="264" y="0" type="line"/>
			<point x="383" y="850" type="line"/>
			<point x="681" y="850" type="line"/>
			<point x="703" y="1000" type="line"/>
			<point x="405" y="1000" type="line"/>
		</contour>
	</outline>
</glyph>
<glyph name="g" format="2">
	<advance width="1180.25"/>
	<unicode hex="0067"/>
	<outline>
		<contour>
			<point x="980" y="1000" type="line"/>
			<point x="953" y="820" type="line"/>
			<point x="901" y="942"/>
			<point x="794" y="1027"/>
			<point x="636" y="1027" type="curve"/>
			<point x="359" y="1027"/>
			<point x="101" y="796"/>
			<point x="61" y="508" type="curve"/>
			<point x="19" y="214"/>
			<point x="219" y="-26"/>
			<point x="504" y="-26" type="curve"/>
			<point x="654" y="-26"/>
			<point x="781" y="53"/>
			<point x="867" y="175" type="curve"/>
			<point x="836" y="-31" type="line"/>
			<point x="811" y="-205"/>
			<point x="612" y="-349"/>
			<point x="427" y="-349" type="curve"/>
			<point x="285" y="-349"/>
			<point x="152" y="-240"/>
			<point x="135" y="-94" type="curve"/>
			<point x="-8" y="-148" type="line"/>
			<point x="28" y="-341"/>
			<point x="209" y="-500"/>
			<point x="423" y="-500" type="curve"/>
			<point x="680" y="-500"/>
			<point x="948" y="-298"/>
			<point x="984" y="-39" type="curve"/>
			<point x="1130" y="1000" type="line"/>
		</contour>
		<contour>
			<point x="509" y="120" type="curve"/>
			<point x="318" y="120"/>
			<point x="182" y="284"/>
			<point x="212" y="492" type="curve"/>
			<point x="242" y="707"/>
			<point x="429" y="882"/>
			<point x="633" y="882" type="curve"/>
			<point x="828" y="882"/>
			<point x="932" y="713"/>
			<point x="902" y="508" type="curve"/>
			<point x="873" y="300"/>
			<point x="715" y="120"/>
		</contour>
	</outline>
</glyph>
<glyph name="i" format="2">
	<advance width="409.5"/>
	<unicode hex="0069"/>
	<outline>
		<contour>
			<point x="195" y="1000" type="line"/>
			<point x="55" y="0" type="line"/>
			<point x="205" y="0" type="line"/>
			<point x="345" y="1000" type="line"/>
		</contour>
		<contour>
			<point x="305" y="1163" type="curve"/>
			<point x="348" y="1163"/>
			<point x="387" y="1198"/>
			<point x="392" y="1238" type="curve"/>
			<point x="400" y="1288"/>
			<point x="363" y="1331"/>
			<point x="313" y="1331" type="curve"/>
			<point x="270" y="1331"/>
			<point x="232" y="1296"/>
			<point x="226" y="1255" type="curve"/>
			<point x="219" y="1207"/>
			<point x="255" y="1163"/>
		</contour>
	</outline>
</glyph>
<glyph name="m" format="2">
	<advance width="1712.25"/>
	<unicode hex="006D"/>
	<outline>
		<contour>
			<point x="23" y="0" type="line"/>
			<point x="173" y="0" type="line"/>
			<point x="246" y="527" type="line" smooth="yes"/>
			<point x="271" y="706"/>
			<point x="407" y="869"/>
			<point x="566" y="869" type="curve" smooth="yes"/>
			<point x="727" y="869"/>
			<point x="813" y="727"/>
			<point x="788" y="548" type="curve" smooth="yes"/>
			<point x="711" y="0" type="line"/>
			<point x="861" y="0" type="line"/>
			<point x="937" y="539" type="line" smooth="yes"/>
			<point x="962" y="718"/>
			<point x="1097" y="869"/>
			<point x="1267" y="869" type="curve" smooth="yes"/>
			<point x="1428" y="869"/>
			<point x="1502" y="727"/>
			<point x="1476" y="548" type="curve" smooth="yes"/>
			<point x="1400" y="0" type="line"/>
			<point x="1550" y="0" type="line"/>
			<point x="1625" y="539" type="line" smooth="yes"/>
			<point x="1662" y="797"/>
			<point x="1528" y="1019"/>
			<point x="1271" y="1019" type="curve" smooth="yes"/>
			<point x="1115" y="1019"/>
			<point x="987" y="938"/>
			<point x="892" y="794" type="curve"/>
			<point x="843" y="929"/>
			<point x="738" y="1019"/>
			<point x="570" y="1019" type="curve" smooth="yes"/>
			<point x="452" y="1019"/>
			<point x="371" y="958"/>
			<point x="289" y="854" type="curve"/>
			<point x="313" y="1000" type="line"/>
			<point x="163" y="1000" type="line"/>
		</contour>
	</outline>
</glyph>
<glyph name="p" format="2">
	<advance width="1225.5"/>
	<unicode hex="0070"/>
	<outline>
		<contour>
			<point x="129" y="-500" type="line"/>
			<point x="228" y="183" type="line"/>
			<point x="279" y="59"/>
			<point x="387" y="-28"/>
			<point x="554" y="-28" type="curve" smooth="yes"/>
			<point x="840" y="-28"/>
			<point x="1104" y="204"/>
			<point x="1145" y="492" type="curve" smooth="yes"/>
			<point x="1186" y="786"/>
			<point x="980" y="1026"/>
			<point x="685" y="1026" type="curve" smooth="yes"/>
			<point x="528" y="1026"/>
			<point x="398" y="946"/>
			<point x="313" y="822" type="curve"/>
			<point x="340" y="1000" type="line"/>
			<point x="190" y="1000" type="line"/>
			<point x="-21" y="-500" type="line"/>
		</contour>
		<contour>
			<point x="680" y="881" type="curve" smooth="yes"/>
			<point x="883" y="881"/>
			<point x="1023" y="713"/>
			<point x="994" y="508" type="curve" smooth="yes"/>
			<point x="964" y="290"/>
			<point x="763" y="118"/>
			<point x="556" y="118" type="curve" smooth="yes"/>
			<point x="353" y="118"/>
			<point x="252" y="286"/>
			<point x="282" y="492" type="curve" smooth="yes"/>
			<point x="311" y="707"/>
			<point x="471" y="881"/>
		</contour>
	</outline>
</glyph>
<glyph name="r" format="2">
	<advance width="738.25"/>
	<unicode hex="0072"/>
	<outline>
		<contour>
			<point x="737" y="856" type="curve"/>
			<point x="776" y="1010" type="line"/>
			<point x="742" y="1022"/>
			<point x="702" y="1027"/>
			<point x="655" y="1027" type="curve"/>
			<point x="527" y="1027"/>
			<point x="407" y="958"/>
			<point x="316" y="841" type="curve"/>
			<point x="340" y="999" type="line"/>
			<point x="190" y="999" type="line"/>
			<point x="50" y="0" type="line"/>
			<point x="201" y="0" type="line"/>
			<point x="275" y="527" type="line"/>
			<point x="302" y="720"/>
			<point x="454" y="882"/>
			<point x="631" y="882" type="curve"/>
			<point x="670" y="882"/>
			<point x="707" y="874"/>
		</contour>
	</outline>
</glyph>
<glyph name="u" format="2">
	<advance width="1144.75"/>
	<unicode hex="0075"/>
	<outline>
		<contour>
			<point x="116" y="470" type="line"/>
			<point x="82" y="204"/>
			<point x="229" y="-27"/>
			<point x="491" y="-27" type="curve"/>
			<point x="620" y="-27"/>
			<point x="739" y="43"/>
			<point x="829" y="160" type="curve"/>
			<point x="804" y="0" type="line"/>
			<point x="955" y="0" type="line"/>
			<point x="1095" y="1000" type="line"/>
			<point x="945" y="1000" type="line"/>
			<point x="871" y="474" type="line"/>
			<point x="844" y="281"/>
			<point x="690" y="120"/>
			<point x="515" y="120" type="curve"/>
			<point x="346" y="120"/>
			<point x="238" y="273"/>
			<point x="265" y="466" type="curve"/>
			<point x="340" y="1000" type="line"/>
			<point x="190" y="1000" type="line"/>
		</contour>
	</outline>
</glyph>
<glyph name="v" format="2">
	<advance width="1041"/>
	<unicode hex="0076"/>
	<outline>
		<contour>
			<point x="547" y="0" type="line"/>
			<point x="1053" y="1003" type="line"/>
			<point x="890" y="1003" type="line"/>
			<point x="472" y="175" type="line"/>
			<point x="289" y="1003" type="line"/>
			<point x="132" y="1003" type="line"/>
			<point x="356" y="0" type="line"/>
		</contour>
	</outline>
</glyph>
<glyph name="w" format="2">
	<advance width="1633"/>
	<unicode hex="0077"/>
	<outline>
		<contour>
			<point x="479" y="0" type="line"/>
			<point x="860" y="798" type="line"/>
			<point x="1015" y="0" type="line"/>
			<point x="1169" y="0" type="line"/>
			<point x="1645" y="1001" type="line"/>
			<point x="1495" y="1001" type="line"/>
			<point x="1117" y="209" type="line"/>
			<point x="964" y="1001" type="line"/>
			<point x="807" y="1001" type="line"/>
			<point x="430" y="209" type="line"/>
			<point x="276" y="1001" type="line"/>
			<point x="132" y="1001" type="line"/>
			<point x="326" y="0" type="line"/>
		</contour>
	</outline>
</glyph>
<glyph name="x" format="2">
	<advance width="1077"/>
	<unicode hex="0078"/>
	<outline>
		<contour>
			<point x="8" y="0" type="line"/>
			<point x="196" y="0" type="line"/>
			<point x="525" y="376" type="line"/>
			<point x="743" y="0" type="line"/>
			<point x="925" y="0" type="line"/>
			<point x="631" y="502" type="line"/>
			<point x="1067" y="1003" type="line"/>
			<point x="879" y="1003" type="line"/>
			<point x="554" y="631" type="line"/>
			<point x="335" y="1003" type="line"/>
			<point x="153" y="1003" type="line"/>
			<point x="446" y="502" type="line"/>
		</contour>
	</outline>
</glyph>
<glyph name="braceleft" format="2">
	<advance width="805"/>
	<unicode hex="007B"/>
	<outline>
		<contour>
			<point x="545" y="-113" type="curve"/>
			<point x="619" y="-113" type="line"/>
			<point x="640" y="37" type="line"/>
			<point x="558" y="37" type="line"/>
			<point x="448" y="37"/>
			<point x="375" y="122"/>
			<point x="390" y="233" type="curve"/>
			<point x="425" y="484" type="line"/>
			<point x="432" y="561"/>
			<point x="392" y="574"/>
			<point x="329" y="635" type="curve"/>
			<point x="409" y="701"/>
			<point x="455" y="718"/>
			<point x="469" y="795" type="curve"/>
			<point x="504" y="1046" type="line"/>
			<point x="520" y="1156"/>
			<point x="628" y="1250"/>
			<point x="738" y="1250" type="curve"/>
			<point x="810" y="1250" type="line"/>
			<point x="831" y="1400" type="line"/>
			<point x="750" y="1400" type="line"/>
			<point x="556" y="1400"/>
			<point x="383" y="1246"/>
			<point x="356" y="1054" type="curve"/>
			<point x="321" y="808" type="line"/>
			<point x="306" y="726"/>
			<point x="153" y="733"/>
			<point x="141" y="651" type="curve"/>
			<point x="129" y="563"/>
			<point x="285" y="573"/>
			<point x="276" y="486" type="curve"/>
			<point x="241" y="241" type="line"/>
			<point x="214" y="48"/>
			<point x="351" y="-113"/>
		</contour>
	</outline>
</glyph>
<glyph name="bar" format="2">
	<advance width="430"/>
	<unicode hex="007C"/>
	<outline>
		<contour>
			<point x="266" y="1400" type="line"/>
			<point x="27" y="-302" type="line"/>
			<point x="177" y="-302" type="line"/>
			<point x="416" y="1400" type="line"/>
		</contour>
	</outline>
</glyph>
<glyph name="braceright" format="2">
	<advance width="805"/>
	<unicode hex="007D"/>
	<outline>
		<contour>
			<point x="14" y="-113" type="line"/>
			<point x="95" y="-113" type="line" smooth="yes"/>
			<point x="289" y="-113"/>
			<point x="463" y="40"/>
			<point x="490" y="233" type="curve" smooth="yes"/>
			<point x="524" y="478" type="line"/>
			<point x="540" y="564"/>
			<point x="693" y="555"/>
			<point x="704" y="635" type="curve" smooth="yes"/>
			<point x="717" y="725"/>
			<point x="561" y="717"/>
			<point x="569" y="800" type="curve"/>
			<point x="604" y="1046" type="line" smooth="yes"/>
			<point x="631" y="1238"/>
			<point x="494" y="1400"/>
			<point x="300" y="1400" type="curve" smooth="yes"/>
			<point x="226" y="1400" type="line"/>
			<point x="205" y="1250" type="line"/>
			<point x="287" y="1250" type="line" smooth="yes"/>
			<point x="396" y="1250"/>
			<point x="471" y="1165"/>
			<point x="455" y="1054" type="curve" smooth="yes"/>
			<point x="420" y="803" type="line" smooth="yes"/>
			<point x="413" y="726"/>
			<point x="456" y="708"/>
			<point x="517" y="650" type="curve"/>
			<point x="434" y="581"/>
			<point x="391" y="570"/>
			<point x="376" y="492" type="curve" smooth="yes"/>
			<point x="341" y="241" type="line" smooth="yes"/>
			<point x="325" y="131"/>
			<point x="218" y="37"/>
			<point x="108" y="37" type="curve" smooth="yes"/>
			<point x="35" y="37" type="line"/>
		</contour>
	</outline>
</glyph>
<glyph name="asciitilde" format="2">
	<advance width="1231.5"/>
	<unicode hex="007E"/>
	<outline>
		<contour>
			<point x="900" y="421" type="curve" smooth="yes"/>
			<point x="1059" y="421"/>
			<point x="1191" y="565"/>
			<point x="1176" y="729" type="curve"/>
			<point x="1031" y="730" type="line"/>
			<point x="1037" y="645"/>
			<point x="964" y="562"/>
			<point x="872" y="562" type="curve" smooth="yes"/>
			<point x="729" y="562"/>
			<point x="543" y="779"/>
			<point x="376" y="779" type="curve" smooth="yes"/>
			<point x="212" y="779"/>
			<point x="69" y="625"/>
			<point x="82" y="468" type="curve"/>
			<point x="228" y="465" type="line"/>
			<point x="222" y="551"/>
			<point x="293" y="637"/>
			<point x="384" y="635" type="curve" smooth="yes"/>
			<point x="514" y="637"/>
			<point x="727" y="421"/>
		</contour>
	</outline>
</glyph>
<glyph name="sterling" format="2">
	<advance width="1164"/>
	<unicode hex="00A3"/>
	<outline>
		<contour>
			<point x="34" y="0" type="line"/>
			<point x="1004" y="0" type="line"/>
			<point x="1025" y="150" type="line"/>
			<point x="379" y="146" type="line"/>
			<point x="438" y="173"/>
			<point x="507" y="246"/>
			<point x="517" y="320" type="curve" smooth="yes"/>
			<point x="565" y="652"/>
			<point x="244" y="601"/>
			<point x="288" y="917" type="curve" smooth="yes"/>
			<point x="316" y="1114"/>
			<point x="501" y="1276"/>
			<point x="699" y="1276" type="curve" smooth="yes"/>
			<point x="889" y="1276"/>
			<point x="1022" y="1122"/>
			<point x="994" y="929" type="curve"/>
			<point x="1143" y="921" type="line"/>
			<point x="1182" y="1197"/>
			<point x="984" y="1426"/>
			<point x="703" y="1426" type="curve" smooth="yes"/>
			<point x="431" y="1426"/>
			<point x="179" y="1205"/>
			<point x="141" y="933" type="curve" smooth="yes"/>
			<point x="97" y="621"/>
			<point x="384" y="612"/>
			<point x="373" y="372" type="curve" smooth="yes"/>
			<point x="377" y="238"/>
			<point x="203" y="150"/>
			<point x="51" y="150" type="curve"/>
		</contour>
		<contour>
			<point x="97" y="449" type="line"/>
			<point x="849" y="449" type="line"/>
			<point x="865" y="562" type="line"/>
			<point x="113" y="562" type="line"/>
		</contour>
	</outline>
</glyph>
<glyph name="brokenbar" format="2">
	<advance width="390"/>
	<unicode hex="00A6"/>
	<outline>
		<contour>
			<point x="113" y="448" type="line"/>
			<point x="7" y="-302" type="line"/>
			<point x="157" y="-302" type="line"/>
			<point x="263" y="448" type="line"/>
		</contour>
		<contour>
			<point x="246" y="1400" type="line"/>
			<point x="141" y="650" type="line"/>
			<point x="291" y="650" type="line"/>
			<point x="396" y="1400" type="line"/>
		</contour>
	</outline>
</glyph>
<glyph name="copyright" format="2">
	<advance width="1813.25"/>
	<unicode hex="00A9"/>
	<outline>
		<contour>
			<point x="813" y="-227" type="curve" smooth="yes"/>
			<point x="1265" y="-227"/>
			<point x="1682" y="139"/>
			<point x="1746" y="592" type="curve" smooth="yes"/>
			<point x="1811" y="1053"/>
			<point x="1489" y="1426"/>
			<point x="1028" y="1426" type="curve" smooth="yes"/>
			<point x="575" y="1426"/>
			<point x="159" y="1061"/>
			<point x="95" y="608" type="curve" smooth="yes"/>
			<point x="31" y="147"/>
			<point x="352" y="-227"/>
		</contour>
		<contour>
			<point x="817" y="-77" type="curve" smooth="yes"/>
			<point x="455" y="-77"/>
			<point x="190" y="214"/>
			<point x="243" y="592" type="curve" smooth="yes"/>
			<point x="296" y="965"/>
			<point x="643" y="1274"/>
			<point x="1024" y="1276" type="curve" smooth="yes"/>
			<point x="1391" y="1279"/>
			<point x="1651" y="978"/>
			<point x="1599" y="608" type="curve" smooth="yes"/>
			<point x="1546" y="238"/>
			<point x="1201" y="-77"/>
		</contour>
		<component base="c" xOffset="368" yOffset="100"/>
	</outline>
</glyph>
<glyph name="registered" format="2">
	<advance width="1007.75"/>
	<unicode hex="00AE"/>
	<outline>
		<contour>
			<point x="506" y="457" type="curve" smooth="yes"/>
			<point x="746" y="458"/>
			<point x="970" y="653"/>
			<point x="1003" y="893" type="curve" smooth="yes"/>
			<point x="1037" y="1133"/>
			<point x="869" y="1344"/>
			<point x="614" y="1344" type="curve" smooth="yes"/>
			<point x="372" y="1344"/>
			<point x="151" y="1147"/>
			<point x="118" y="909" type="curve" smooth="yes"/>
			<point x="83" y="663"/>
			<point x="255" y="458"/>
		</contour>
		<contour>
			<point x="506" y="573" type="curve" smooth="yes"/>
			<point x="329" y="573"/>
			<point x="207" y="716"/>
			<point x="232" y="893" type="curve" smooth="yes"/>
			<point x="257" y="1077"/>
			<point x="430" y="1228"/>
			<point x="614" y="1228" type="curve" smooth="yes"/>
			<point x="791" y="1228"/>
			<point x="914" y="1085"/>
			<point x="889" y="909" type="curve" smooth="yes"/>
			<point x="863" y="724"/>
			<point x="690" y="573"/>
		</contour>
		<contour>
			<point x="409" y="708" type="line"/>
			<point x="488" y="708" type="line"/>
			<point x="511" y="868" type="line"/>
			<point x="539" y="868" type="line"/>
			<point x="610" y="708" type="line"/>
			<point x="697" y="708" type="line"/>
			<point x="626" y="875" type="line"/>
			<point x="675" y="890"/>
			<point x="708" y="932"/>
			<point x="715" y="980" type="curve" smooth="yes"/>
			<point x="725" y="1052"/>
			<point x="678" y="1111"/>
			<point x="613" y="1111" type="curve" smooth="yes"/>
			<point x="466" y="1111" type="line"/>
		</contour>
		<contour>
			<point x="521" y="947" type="line"/>
			<point x="533" y="1032" type="line"/>
			<point x="611" y="1032" type="line" smooth="yes"/>
			<point x="631" y="1032"/>
			<point x="641" y="1017"/>
			<point x="638" y="997" type="curve" smooth="yes"/>
			<point x="635" y="970"/>
			<point x="611" y="947"/>
			<point x="590" y="947" type="curve" smooth="yes"/>
		</contour>
	</outline>
</glyph>
<glyph name="macron" format="2">
	<advance width="1200"/>
	<unicode hex="00AF"/>
	<outline>
		<contour>
			<point x="384" y="1367" type="line"/>
			<point x="363" y="1217" type="line"/>
			<point x="1039" y="1217" type="line"/>
			<point x="1060" y="1367" type="line"/>
		</contour>
	</outline>
</glyph>
<glyph name="plusminus" format="2">
	<advance width="1160"/>
	<unicode hex="00B1"/>
	<outline>
		<contour>
			<point x="482" y="338" type="line"/>
			<point x="632" y="338" type="line"/>
			<point x="692" y="763" type="line"/>
			<point x="1117" y="763" type="line"/>
			<point x="1138" y="913" type="line"/>
			<point x="713" y="913" type="line"/>
			<point x="772" y="1338" type="line"/>
			<point x="622" y="1338" type="line"/>
			<point x="563" y="913" type="line"/>
			<point x="138" y="913" type="line"/>
			<point x="117" y="763" type="line"/>
			<point x="542" y="763" type="line"/>
		</contour>
		<contour>
			<point x="10" y="1" type="line"/>
			<point x="1010" y="1" type="line"/>
			<point x="1031" y="151" type="line"/>
			<point x="31" y="151" type="line"/>
		</contour>
	</outline>
</glyph>
<glyph name="uni00B2" format="2">
	<advance width="691.375"/>
	<unicode hex="00B2"/>
	<outline>
		<contour>
			<point x="141" y="818" type="line"/>
			<point x="588" y="818" type="line"/>
			<point x="603" y="926" type="line"/>
			<point x="350" y="923" type="line"/>
			<point x="471" y="1004"/>
			<point x="637" y="1135"/>
			<point x="652" y="1245" type="curve" smooth="yes"/>
			<point x="670" y="1373"/>
			<point x="579" y="1468"/>
			<point x="451" y="1468" type="curve" smooth="yes"/>
			<point x="329" y="1468"/>
			<point x="220" y="1382"/>
			<point x="203" y="1257" type="curve"/>
			<point x="309" y="1249" type="line"/>
			<point x="318" y="1314"/>
			<point x="383" y="1365"/>
			<point x="453" y="1365" type="curve" smooth="yes"/>
			<point x="513" y="1365"/>
			<point x="555" y="1323"/>
			<point x="545" y="1261" type="curve" smooth="yes"/>
			<point x="500" y="1134"/>
			<point x="266" y="992"/>
			<point x="152" y="922" type="curve"/>
		</contour>
	</outline>
</glyph>
<glyph name="uni00B9" format="2">
	<advance width="425.375"/>
	<unicode hex="00B9"/>
	<outline>
		<contour>
			<point x="218" y="818" type="line"/>
			<point x="326" y="818" type="line"/>
			<point x="414" y="1449" type="line"/>
			<point x="244" y="1449" type="line"/>
			<point x="214" y="1341" type="line"/>
			<point x="292" y="1341" type="line"/>
		</contour>
	</outline>
</glyph>
<glyph name="questiondown" format="2">
	<advance width="989"/>
	<unicode hex="00BF"/>
	<outline>
		<contour>
			<point x="365" y="-427" type="curve" smooth="yes"/>
			<point x="585" y="-427"/>
			<point x="789" y="-249"/>
			<point x="820" y="-25" type="curve"/>
			<point x="671" y="-17" type="line"/>
			<point x="651" y="-158"/>
			<point x="515" y="-277"/>
			<point x="370" y="-277" type="curve" smooth="yes"/>
			<point x="232" y="-277"/>
			<point x="136" y="-167"/>
			<point x="156" y="-29" type="curve" smooth="yes"/>
			<point x="170" y="73"/>
			<point x="235" y="162"/>
			<point x="325" y="204" type="curve" smooth="yes"/>
			<point x="449" y="271"/>
			<point x="532" y="389"/>
			<point x="551" y="521" type="curve"/>
			<point x="402" y="529" type="line"/>
			<point x="391" y="450"/>
			<point x="335" y="378"/>
			<point x="259" y="344" type="curve" smooth="yes"/>
			<point x="124" y="273"/>
			<point x="29" y="137"/>
			<point x="8" y="-13" type="curve" smooth="yes"/>
			<point x="-24" y="-241"/>
			<point x="136" y="-427"/>
		</contour>
		<contour>
			<point x="535" y="857" type="curve" smooth="yes"/>
			<point x="577" y="857"/>
			<point x="615" y="890"/>
			<point x="620" y="932" type="curve" smooth="yes"/>
			<point x="628" y="985"/>
			<point x="592" y="1026"/>
			<point x="542" y="1026" type="curve" smooth="yes"/>
			<point x="499" y="1026"/>
			<point x="461" y="993"/>
			<point x="455" y="949" type="curve" smooth="yes"/>
			<point x="447" y="899"/>
			<point x="483" y="857"/>
		</contour>
	</outline>
</glyph>
<glyph name="AE" format="2">
	<advance width="1624"/>
	<unicode hex="00C6"/>
	<outline>
		<contour>
			<point x="8" y="0" type="line"/>
			<point x="170" y="0" type="line"/>
			<point x="319" y="295" type="line"/>
			<point x="782" y="295" type="line"/>
			<point x="741" y="0" type="line"/>
			<point x="1455" y="0" type="line"/>
			<point x="1476" y="150" type="line"/>
			<point x="911" y="150" type="line"/>
			<point x="978" y="625" type="line"/>
			<point x="1447" y="625" type="line"/>
			<point x="1467" y="775" type="line"/>
			<point x="999" y="775" type="line"/>
			<point x="1066" y="1250" type="line"/>
			<point x="1630" y="1250" type="line"/>
			<point x="1651" y="1400" type="line"/>
			<point x="715" y="1400" type="line"/>
		</contour>
		<contour>
			<point x="395" y="445" type="line"/>
			<point x="803" y="1250" type="line"/>
			<point x="916" y="1250" type="line"/>
			<point x="803" y="445" type="line"/>
		</contour>
	</outline>
</glyph>
<glyph name="germandbls" format="2">
	<advance width="1076"/>
	<unicode hex="00DF"/>
	<outline>
		<contour>
			<point x="50" y="0" type="line"/>
			<point x="200" y="0" type="line"/>
			<point x="336" y="973" type="line" smooth="yes"/>
			<point x="359" y="1133"/>
			<point x="510" y="1265"/>
			<point x="674" y="1265" type="curve" smooth="yes"/>
			<point x="798" y="1265"/>
			<point x="885" y="1158"/>
			<point x="866" y="1025" type="curve" smooth="yes"/>
			<point x="847" y="884"/>
			<point x="721" y="773"/>
			<point x="592" y="768" type="curve" smooth="yes"/>
			<point x="568" y="766" type="line"/>
			<point x="551" y="638" type="line"/>
			<point x="644" y="637" type="line" smooth="yes"/>
			<point x="786" y="634"/>
			<point x="882" y="528"/>
			<point x="864" y="394" type="curve" smooth="yes"/>
			<point x="844" y="251"/>
			<point x="707" y="133"/>
			<point x="565" y="133" type="curve" smooth="yes"/>
			<point x="481" y="133" type="line"/>
			<point x="489" y="0" type="line"/>
			<point x="566" y="0" type="line" smooth="yes"/>
			<point x="777" y="0"/>
			<point x="968" y="161"/>
			<point x="998" y="369" type="curve" smooth="yes"/>
			<point x="1019" y="522"/>
			<point x="963" y="681"/>
			<point x="811" y="716" type="curve"/>
			<point x="929" y="773"/>
			<point x="998" y="893"/>
			<point x="1014" y="1008" type="curve" smooth="yes"/>
			<point x="1045" y="1226"/>
			<point x="900" y="1399"/>
			<point x="689" y="1399" type="curve" smooth="yes"/>
			<point x="443" y="1399"/>
			<point x="218" y="1200"/>
			<point x="184" y="952" type="curve" smooth="yes"/>
		</contour>
	</outline>
</glyph>
<glyph name="ae" format="2">
	<advance width="1873.625"/>
	<unicode hex="00E6"/>
	<outline>
		<contour>
			<point x="409" y="-10" type="curve" smooth="yes"/>
			<point x="526" y="-10" type="line" smooth="yes"/>
			<point x="681" y="-10"/>
			<point x="810" y="78"/>
			<point x="879" y="216" type="curve"/>
			<point x="944" y="84"/>
			<point x="1078" y="-10"/>
			<point x="1251" y="-10" type="curve" smooth="yes"/>
			<point x="1446" y="-10"/>
			<point x="1634" y="110"/>
			<point x="1739" y="288" type="curve"/>
			<point x="1587" y="331" type="line"/>
			<point x="1508" y="214"/>
			<point x="1387" y="140"/>
			<point x="1255" y="140" type="curve" smooth="yes"/>
			<point x="1080" y="141"/>
			<point x="963" y="273"/>
			<point x="966" y="457" type="curve"/>
			<point x="1804" y="457" type="line"/>
			<point x="1869" y="785"/>
			<point x="1685" y="1044"/>
			<point x="1383" y="1044" type="curve" smooth="yes"/>
			<point x="1211" y="1044"/>
			<point x="1046" y="948"/>
			<point x="942" y="798" type="curve"/>
			<point x="913" y="939"/>
			<point x="826" y="1044"/>
			<point x="607" y="1044" type="curve" smooth="yes"/>
			<point x="455" y="1044"/>
			<point x="297" y="1014"/>
			<point x="195" y="873" type="curve"/>
			<point x="317" y="790" type="line"/>
			<point x="374" y="868"/>
			<point x="479" y="905"/>
			<point x="604" y="905" type="curve" smooth="yes"/>
			<point x="826" y="905"/>
			<point x="837" y="767"/>
			<point x="827" y="585" type="curve"/>
			<point x="408" y="581" type="line" smooth="yes"/>
			<point x="235" y="581"/>
			<point x="82" y="515"/>
			<point x="51" y="336" type="curve"/>
			<point x="21" y="106"/>
			<point x="190" y="-10"/>
		</contour>
		<contour>
			<point x="465" y="95" type="curve"/>
			<point x="298" y="95"/>
			<point x="173" y="146"/>
			<point x="193" y="307" type="curve"/>
			<point x="214" y="429"/>
			<point x="321" y="461"/>
			<point x="464" y="461" type="curve" smooth="yes"/>
			<point x="806" y="461" type="line"/>
			<point x="794" y="373" type="line"/>
			<point x="784" y="303"/>
			<point x="723" y="95"/>
		</contour>
		<contour>
			<point x="981" y="577" type="line"/>
			<point x="1027" y="760"/>
			<point x="1195" y="909"/>
			<point x="1380" y="909" type="curve" smooth="yes"/>
			<point x="1556" y="909"/>
			<point x="1680" y="764"/>
			<point x="1671" y="585" type="curve"/>
		</contour>
	</outline>
</glyph>
<glyph name="icircumflex" format="2">
	<advance width="381"/>
	<unicode hex="00EE"/>
	<outline>
		<contour>
			<point x="186" y="1000" type="line"/>
			<point x="46" y="0" type="line"/>
			<point x="196" y="0" type="line"/>
			<point x="336" y="1000" type="line"/>
		</contour>
		<component base="uni0302" xOffset="-378"/>
	</outline>
</glyph>
<glyph name="idieresis" format="2">
	<advance width="615"/>
	<unicode hex="00EF"/>
	<outline>
		<contour>
			<point x="301" y="1000" type="line"/>
			<point x="161" y="0" type="line"/>
			<point x="311" y="0" type="line"/>
			<point x="451" y="1000" type="line"/>
		</contour>
		<component base="uni0308" xOffset="-340"/>
	</outline>
</glyph>
<glyph name="eth" format="2">
	<advance width="1124.75"/>
	<unicode hex="00F0"/>
	<outline>
		<contour>
			<point x="513" y="1051" type="line"/>
			<point x="1008" y="1481" type="line"/>
			<point x="937" y="1561" type="line"/>
			<point x="440" y="1131" type="line"/>
		</contour>
		<component base="partialdiff"/>
	</outline>
</glyph>
<glyph name="divide" format="2">
	<advance width="1160"/>
	<unicode hex="00F7"/>
	<outline>
		<contour>
			<point x="84" y="525" type="line"/>
			<point x="1084" y="525" type="line"/>
			<point x="1104" y="675" type="line"/>
			<point x="104" y="675" type="line"/>
		</contour>
		<contour>
			<point x="652" y="1069" type="curve"/>
			<point x="594" y="1069"/>
			<point x="547" y="1021"/>
			<point x="540" y="970" type="curve"/>
			<point x="531" y="907"/>
			<point x="572" y="855"/>
			<point x="638" y="855" type="curve"/>
			<point x="691" y="855"/>
			<point x="741" y="899"/>
			<point x="748" y="953" type="curve"/>
			<point x="757" y="1013"/>
			<point x="713" y="1069"/>
		</contour>
		<contour>
			<point x="550" y="344" type="curve"/>
			<point x="492" y="344"/>
			<point x="445" y="298"/>
			<point x="438" y="245" type="curve"/>
			<point x="429" y="182"/>
			<point x="471" y="131"/>
			<point x="537" y="131" type="curve"/>
			<point x="589" y="131"/>
			<point x="642" y="174"/>
			<point x="649" y="228" type="curve"/>
			<point x="658" y="289"/>
			<point x="611" y="344"/>
		</contour>
	</outline>
</glyph>
<glyph name="oslash" format="2">
	<advance width="1120"/>
	<unicode hex="00F8"/>
	<outline>
		<contour>
			<point x="236" y="-57" type="line"/>
			<point x="295" y="24" type="line"/>
			<point x="351" y="-6"/>
			<point x="418" y="-26"/>
			<point x="494" y="-26" type="curve" smooth="yes"/>
			<point x="766" y="-26"/>
			<point x="1019" y="206"/>
			<point x="1059" y="492" type="curve" smooth="yes"/>
			<point x="1083" y="664"/>
			<point x="1027" y="814"/>
			<point x="926" y="910" type="curve"/>
			<point x="991" y="997" type="line"/>
			<point x="886" y="1061" type="line"/>
			<point x="825" y="980" type="line"/>
			<point x="771" y="1010"/>
			<point x="704" y="1028"/>
			<point x="626" y="1028" type="curve" smooth="yes"/>
			<point x="354" y="1028"/>
			<point x="101" y="796"/>
			<point x="61" y="508" type="curve" smooth="yes"/>
			<point x="37" y="339"/>
			<point x="94" y="189"/>
			<point x="196" y="93" type="curve"/>
			<point x="131" y="7" type="line"/>
		</contour>
		<contour>
			<point x="281" y="215" type="line"/>
			<point x="217" y="280"/>
			<point x="184" y="377"/>
			<point x="199" y="485" type="curve" smooth="yes"/>
			<point x="237" y="762"/>
			<point x="530" y="961"/>
			<point x="748" y="860" type="curve"/>
		</contour>
		<contour>
			<point x="373" y="143" type="curve"/>
			<point x="841" y="788" type="line"/>
			<point x="904" y="722"/>
			<point x="936" y="623"/>
			<point x="921" y="515" type="curve" smooth="yes"/>
			<point x="883" y="244"/>
			<point x="600" y="39"/>
		</contour>
	</outline>
</glyph>
<glyph name="dotlessi" format="2">
	<advance width="391"/>
	<unicode hex="0131"/>
	<outline>
		<contour>
			<point x="190" y="1000" type="line"/>
			<point x="50" y="0" type="line"/>
			<point x="200" y="0" type="line"/>
			<point x="340" y="1000" type="line"/>
		</contour>
	</outline>
</glyph>
<glyph name="OE" format="2">
	<advance width="2164.75"/>
	<unicode hex="0152"/>
	<outline>
		<contour>
			<point x="704" y="-26" type="curve" smooth="yes"/>
			<point x="930" y="-26"/>
			<point x="1149" y="100"/>
			<point x="1285" y="288" type="curve"/>
			<point x="1241" y="0" type="line"/>
			<point x="1995" y="0" type="line"/>
			<point x="2016" y="150" type="line"/>
			<point x="1412" y="150" type="line"/>
			<point x="1479" y="625" type="line"/>
			<point x="1986" y="625" type="line"/>
			<point x="2007" y="775" type="line"/>
			<point x="1500" y="775" type="line"/>
			<point x="1567" y="1250" type="line"/>
			<point x="2170" y="1250" type="line"/>
			<point x="2191" y="1400" type="line"/>
			<point x="1438" y="1400" type="line"/>
			<point x="1394" y="1105" type="line"/>
			<point x="1311" y="1294"/>
			<point x="1126" y="1426"/>
			<point x="892" y="1426" type="curve" smooth="yes"/>
			<point x="516" y="1426"/>
			<point x="165" y="1104"/>
			<point x="109" y="708" type="curve" smooth="yes"/>
			<point x="52" y="304"/>
			<point x="320" y="-26"/>
		</contour>
		<contour>
			<point x="709" y="124" type="curve" smooth="yes"/>
			<point x="415" y="124"/>
			<point x="213" y="379"/>
			<point x="257" y="692" type="curve" smooth="yes"/>
			<point x="301" y="1009"/>
			<point x="583" y="1276"/>
			<point x="888" y="1276" type="curve" smooth="yes"/>
			<point x="1181" y="1276"/>
			<point x="1383" y="1020"/>
			<point x="1339" y="708" type="curve" smooth="yes"/>
			<point x="1295" y="392"/>
			<point x="1013" y="124"/>
		</contour>
	</outline>
</glyph>
<glyph name="oe" format="2">
	<advance width="1968.75"/>
	<unicode hex="0153"/>
	<outline>
		<contour>
			<point x="494" y="-26" type="curve" smooth="yes"/>
			<point x="676" y="-26"/>
			<point x="852" y="82"/>
			<point x="955" y="247" type="curve"/>
			<point x="1007" y="89"/>
			<point x="1154" y="-26"/>
			<point x="1344" y="-26" type="curve" smooth="yes"/>
			<point x="1540" y="-26"/>
			<point x="1727" y="94"/>
			<point x="1832" y="272" type="curve"/>
			<point x="1681" y="315" type="line"/>
			<point x="1601" y="198"/>
			<point x="1481" y="124"/>
			<point x="1349" y="124" type="curve" smooth="yes"/>
			<point x="1174" y="125"/>
			<point x="1057" y="257"/>
			<point x="1059" y="440" type="curve"/>
			<point x="1898" y="440" type="line"/>
			<point x="1962" y="769"/>
			<point x="1778" y="1028"/>
			<point x="1476" y="1028" type="curve" smooth="yes"/>
			<point x="1294" y="1028"/>
			<point x="1119" y="920"/>
			<point x="1015" y="754" type="curve"/>
			<point x="963" y="913"/>
			<point x="816" y="1028"/>
			<point x="626" y="1028" type="curve" smooth="yes"/>
			<point x="354" y="1028"/>
			<point x="101" y="796"/>
			<point x="61" y="508" type="curve" smooth="yes"/>
			<point x="19" y="214"/>
			<point x="214" y="-26"/>
		</contour>
		<contour>
			<point x="499" y="124" type="curve" smooth="yes"/>
			<point x="313" y="124"/>
			<point x="180" y="285"/>
			<point x="209" y="492" type="curve" smooth="yes"/>
			<point x="238" y="699"/>
			<point x="419" y="878"/>
			<point x="622" y="878" type="curve" smooth="yes"/>
			<point x="812" y="878"/>
			<point x="940" y="709"/>
			<point x="911" y="508" type="curve" smooth="yes"/>
			<point x="882" y="302"/>
			<point x="701" y="124"/>
		</contour>
		<contour>
			<point x="1074" y="560" type="line"/>
			<point x="1120" y="744"/>
			<point x="1288" y="893"/>
			<point x="1473" y="893" type="curve" smooth="yes"/>
			<point x="1649" y="893"/>
			<point x="1774" y="747"/>
			<point x="1765" y="569" type="curve"/>
		</contour>
	</outline>
</glyph>
<glyph name="breve" format="2">
	<advance width="1144"/>
	<unicode hex="02D8"/>
	<outline>
		<contour>
			<point x="669" y="1128" type="curve" smooth="yes"/>
			<point x="844" y="1128"/>
			<point x="1012" y="1269"/>
			<point x="1039" y="1456" type="curve"/>
			<point x="934" y="1464" type="line"/>
			<point x="917" y="1338"/>
			<point x="795" y="1233"/>
			<point x="667" y="1233" type="curve" smooth="yes"/>
			<point x="551" y="1233"/>
			<point x="461" y="1326"/>
			<point x="480" y="1456" type="curve"/>
			<point x="375" y="1464" type="line"/>
			<point x="350" y="1282"/>
			<point x="483" y="1128"/>
		</contour>
	</outline>
</glyph>
<glyph name="ogonek" format="2">
	<advance width="1115"/>
	<unicode hex="02DB"/>
	<outline>
		<contour>
			<point x="501" y="-387" type="curve" smooth="yes"/>
			<point x="562" y="-387" type="line"/>
			<point x="579" y="-268" type="line"/>
			<point x="508" y="-268" type="line" smooth="yes"/>
			<point x="381" y="-268"/>
			<point x="288" y="-161"/>
			<point x="306" y="-34" type="curve" smooth="yes"/>
			<point x="319" y="62" type="line"/>
			<point x="200" y="62" type="line"/>
			<point x="188" y="-24" type="line" smooth="yes"/>
			<point x="160" y="-222"/>
			<point x="302" y="-387"/>
		</contour>
	</outline>
</glyph>
<glyph name="acutecomb" format="2">
	<advance width="1030"/>
	<unicode hex="0301"/>
	<outline>
		<contour>
			<point x="569" y="1138" type="line"/>
			<point x="644" y="1138" type="line"/>
			<point x="842" y="1426" type="line"/>
			<point x="689" y="1426" type="line"/>
		</contour>
	</outline>
</glyph>
<glyph name="uni0302" format="2">
	<advance width="1139.5"/>
	<unicode hex="0302"/>
	<outline>
		<contour>
			<point x="627" y="1400" type="line"/>
			<point x="492" y="1166" type="line"/>
			<point x="598" y="1166" type="line"/>
			<point x="689" y="1324" type="line"/>
			<point x="731" y="1166" type="line"/>
			<point x="832" y="1166" type="line"/>
			<point x="765" y="1400" type="line"/>
		</contour>
	</outline>
</glyph>
<glyph name="tildecomb" format="2">
	<advance width="1441.75"/>
	<unicode hex="0303"/>
	<outline>
		<contour>
			<point x="893" y="1269" type="curve" smooth="yes"/>
			<point x="1008" y="1269"/>
			<point x="1093" y="1376"/>
			<point x="1070" y="1500" type="curve"/>
			<point x="969" y="1476" type="line"/>
			<point x="977" y="1442"/>
			<point x="950" y="1376"/>
			<point x="902" y="1376" type="curve" smooth="yes"/>
			<point x="842" y="1376"/>
			<point x="703" y="1520"/>
			<point x="599" y="1520" type="curve" smooth="yes"/>
			<point x="482" y="1520"/>
			<point x="401" y="1411"/>
			<point x="425" y="1293" type="curve"/>
			<point x="524" y="1312" type="line"/>
			<point x="518" y="1362"/>
			<point x="550" y="1401"/>
			<point x="585" y="1407" type="curve" smooth="yes"/>
			<point x="649" y="1427"/>
			<point x="789" y="1269"/>
		</contour>
	</outline>
</glyph>
<glyph name="uni0308" format="2">
	<advance width="1294.5"/>
	<unicode hex="0308"/>
	<outline>
		<contour>
			<point x="592" y="1190" type="curve" smooth="yes"/>
			<point x="635" y="1190"/>
			<point x="674" y="1221"/>
			<point x="679" y="1266" type="curve" smooth="yes"/>
			<point x="687" y="1316"/>
			<point x="650" y="1359"/>
			<point x="599" y="1359" type="curve" smooth="yes"/>
			<point x="555" y="1359"/>
			<point x="516" y="1325"/>
			<point x="510" y="1282" type="curve" smooth="yes"/>
			<point x="502" y="1230"/>
			<point x="540" y="1190"/>
		</contour>
		<contour>
			<point x="915" y="1190" type="curve" smooth="yes"/>
			<point x="957" y="1190"/>
			<point x="996" y="1221"/>
			<point x="1002" y="1266" type="curve" smooth="yes"/>
			<point x="1009" y="1316"/>
			<point x="973" y="1359"/>
			<point x="922" y="1359" type="curve" smooth="yes"/>
			<point x="878" y="1359"/>
			<point x="838" y="1325"/>
			<point x="832" y="1282" type="curve" smooth="yes"/>
			<point x="825" y="1230"/>
			<point x="862" y="1190"/>
		</contour>
	</outline>
</glyph>
<glyph name="uni0327" format="2">
	<advance width="1225"/>
	<unicode hex="0327"/>
	<outline>
		<contour>
			<point x="287" y="-306" type="line"/>
			<point x="356" y="-306" type="line" smooth="yes"/>
			<point x="555" y="-306"/>
			<point x="734" y="-150"/>
			<point x="762" y="49" type="curve" smooth="yes"/>
			<point x="771" y="118" type="line"/>
			<point x="652" y="118" type="line"/>
			<point x="643" y="56" type="line" smooth="yes"/>
			<point x="625" y="-71"/>
			<point x="493" y="-187"/>
			<point x="366" y="-187" type="curve" smooth="yes"/>
			<point x="303" y="-187" type="line"/>
		</contour>
	</outline>
</glyph>
<glyph name="endash" format="2">
	<advance width="1240"/>
	<unicode hex="2013"/>
	<outline>
		<contour>
			<point x="144" y="675" type="line"/>
			<point x="124" y="525" type="line"/>
			<point x="1124" y="525" type="line"/>
			<point x="1144" y="675" type="line"/>
		</contour>
	</outline>
</glyph>
<glyph name="quoteleft" format="2">
	<advance width="312"/>
	<unicode hex="2018"/>
	<unicode hex="02BB"/>
	<outline>
		<contour>
			<point x="112" y="878" type="line"/>
			<point x="263" y="878" type="line"/>
			<point x="399" y="1400" type="line"/>
			<point x="297" y="1400" type="line"/>
		</contour>
	</outline>
</glyph>
<glyph name="daggerdbl" format="2">
	<advance width="796"/>
	<unicode hex="2021"/>
	<outline>
		<contour>
			<point x="119" y="777" type="line"/>
			<point x="362" y="777" type="line"/>
			<point x="331" y="560" type="line"/>
			<point x="481" y="560" type="line"/>
			<point x="512" y="777" type="line"/>
			<point x="755" y="777" type="line"/>
			<point x="775" y="925" type="line"/>
			<point x="532" y="925" type="line"/>
			<point x="561" y="1125" type="line"/>
			<point x="804" y="1125" type="line"/>
			<point x="825" y="1275" type="line"/>
			<point x="582" y="1275" type="line"/>
			<point x="614" y="1500" type="line"/>
			<point x="464" y="1500" type="line"/>
			<point x="432" y="1275" type="line"/>
			<point x="189" y="1275" type="line"/>
			<point x="168" y="1125" type="line"/>
			<point x="411" y="1125" type="line"/>
			<point x="382" y="925" type="line"/>
			<point x="139" y="925" type="line"/>
		</contour>
	</outline>
</glyph>
<glyph name="uni2035" format="2">
	<advance width="452"/>
	<unicode hex="2035"/>
	<outline>
		<contour>
			<point x="286" y="878" type="line"/>
			<point x="385" y="878" type="line"/>
			<point x="396" y="1400" type="line"/>
			<point x="248" y="1400" type="line"/>
		</contour>
	</outline>
</glyph>
<glyph name="guilsinglleft" format="2">
	<advance width="682.5"/>
	<unicode hex="2039"/>
	<outline>
		<contour>
			<point x="388" y="261" type="line"/>
			<point x="547" y="261" type="line"/>
			<point x="297" y="601" type="line"/>
			<point x="646" y="939" type="line"/>
			<point x="480" y="939" type="line"/>
			<point x="134" y="601" type="line"/>
		</contour>
	</outline>
</glyph>
<glyph name="uni2075" format="2">
	<advance width="683.5"/>
	<unicode hex="2075"/>
	<outline>
		<contour>
			<point x="362" y="798" type="curve" smooth="yes"/>
			<point x="483" y="798"/>
			<point x="594" y="883"/>
			<point x="611" y="1005" type="curve" smooth="yes"/>
			<point x="633" y="1162"/>
			<point x="518" y="1252"/>
			<point x="343" y="1235" type="curve"/>
			<point x="371" y="1350" type="line"/>
			<point x="618" y="1350" type="line"/>
			<point x="632" y="1449" type="line"/>
			<point x="286" y="1449" type="line"/>
			<point x="212" y="1106" type="line"/>
			<point x="290" y="1126"/>
			<point x="347" y="1133"/>
			<point x="408" y="1133" type="curve" smooth="yes"/>
			<point x="470" y="1130"/>
			<point x="513" y="1083"/>
			<point x="505" y="1022" type="curve" smooth="yes"/>
			<point x="495" y="953"/>
			<point x="429" y="902"/>
			<point x="360" y="902" type="curve" smooth="yes"/>
			<point x="297" y="902"/>
			<point x="255" y="944"/>
			<point x="263" y="1009" type="curve"/>
			<point x="157" y="1018" type="line"/>
			<point x="139" y="892"/>
			<point x="232" y="798"/>
		</contour>
	</outline>
</glyph>
<glyph name="uni2076" format="2">
	<advance width="706"/>
	<unicode hex="2076"/>
	<outline>
		<contour>
			<point x="379" y="798" type="curve" smooth="yes"/>
			<point x="499" y="798"/>
			<point x="615" y="880"/>
			<point x="633" y="1010" type="curve" smooth="yes"/>
			<point x="652" y="1142"/>
			<point x="556" y="1253"/>
			<point x="416" y="1244" type="curve"/>
			<point x="567" y="1446" type="line"/>
			<point x="438" y="1449" type="line"/>
			<point x="214" y="1141"/>
			<point x="180" y="1100"/>
			<point x="170" y="1027" type="curve" smooth="yes"/>
			<point x="152" y="898"/>
			<point x="241" y="798"/>
		</contour>
		<contour>
			<point x="377" y="902" type="curve" smooth="yes"/>
			<point x="316" y="902"/>
			<point x="269" y="939"/>
			<point x="274" y="1004" type="curve" smooth="yes"/>
			<point x="282" y="1077"/>
			<point x="349" y="1143"/>
			<point x="428" y="1143" type="curve" smooth="yes"/>
			<point x="484" y="1143"/>
			<point x="535" y="1101"/>
			<point x="529" y="1033" type="curve" smooth="yes"/>
			<point x="522" y="958"/>
			<point x="452" y="902"/>
		</contour>
	</outline>
</glyph>
<glyph name="uni2077" format="2">
	<advance width="639.75"/>
	<unicode hex="2077"/>
	<outline>
		<contour>
			<point x="187" y="818" type="line"/>
			<point x="314" y="818" type="line"/>
			<point x="688" y="1342" type="line"/>
			<point x="701" y="1448" type="line"/>
			<point x="253" y="1448" type="line"/>
			<point x="238" y="1340" type="line"/>
			<point x="559" y="1340" type="line"/>
		</contour>
	</outline>
</glyph>
<glyph name="uni2080" format="2">
	<advance width="648"/>
	<unicode hex="2080"/>
	<outline>
		<contour>
			<point x="258" y="-31" type="curve"/>
			<point x="393" y="-31"/>
			<point x="521" y="111"/>
			<point x="548" y="299" type="curve"/>
			<point x="575" y="494"/>
			<point x="479" y="646"/>
			<point x="336" y="646" type="curve"/>
			<point x="201" y="646"/>
			<point x="72" y="502"/>
			<point x="47" y="315" type="curve"/>
			<point x="18" y="119"/>
			<point x="115" y="-31"/>
		</contour>
		<contour>
			<point x="256" y="77" type="curve"/>
			<point x="174" y="77"/>
			<point x="136" y="189"/>
			<point x="152" y="299" type="curve"/>
			<point x="167" y="410"/>
			<point x="243" y="538"/>
			<point x="338" y="538" type="curve"/>
			<point x="420" y="538"/>
			<point x="458" y="425"/>
			<point x="443" y="315" type="curve"/>
			<point x="427" y="208"/>
			<point x="350" y="77"/>
		</contour>
	</outline>
</glyph>
<glyph name="uni2082" format="2">
	<advance width="691.375"/>
	<unicode hex="2082"/>
	<outline>
		<contour>
			<point x="26" y="0" type="line"/>
			<point x="473" y="0" type="line"/>
			<point x="488" y="108" type="line"/>
			<point x="235" y="105" type="line"/>
			<point x="356" y="187"/>
			<point x="522" y="317"/>
			<point x="537" y="427" type="curve" smooth="yes"/>
			<point x="555" y="555"/>
			<point x="464" y="655"/>
			<point x="336" y="655" type="curve" smooth="yes"/>
			<point x="214" y="655"/>
			<point x="105" y="564"/>
			<point x="88" y="440" type="curve"/>
			<point x="194" y="431" type="line"/>
			<point x="203" y="497"/>
			<point x="269" y="547"/>
			<point x="338" y="547" type="curve" smooth="yes"/>
			<point x="399" y="547"/>
			<point x="440" y="506"/>
			<point x="430" y="443" type="curve" smooth="yes"/>
			<point x="385" y="317"/>
			<point x="151" y="174"/>
			<point x="37" y="104" type="curve"/>
		</contour>
	</outline>
</glyph>
<glyph name="uni2084" format="2">
	<advance width="682.25"/>
	<unicode hex="2084"/>
	<outline>
		<contour>
			<point x="291" y="0" type="line"/>
			<point x="399" y="0" type="line"/>
			<point x="415" y="119" type="line"/>
			<point x="485" y="119" type="line"/>
			<point x="500" y="227" type="line"/>
			<point x="430" y="227" type="line"/>
			<point x="487" y="631" type="line"/>
			<point x="355" y="631" type="line"/>
			<point x="59" y="249" type="line"/>
			<point x="42" y="119" type="line"/>
			<point x="307" y="119" type="line"/>
		</contour>
		<contour>
			<point x="169" y="227" type="line"/>
			<point x="367" y="483" type="line"/>
			<point x="329" y="227" type="line"/>
		</contour>
	</outline>
</glyph>
<glyph name="uni2085" format="2">
	<advance width="683.5"/>
	<unicode hex="2085"/>
	<outline>
		<contour>
			<point x="245" y="-31" type="curve"/>
			<point x="367" y="-31"/>
			<point x="477" y="58"/>
			<point x="494" y="180" type="curve"/>
			<point x="512" y="310"/>
			<point x="432" y="414"/>
			<point x="297" y="414" type="curve"/>
			<point x="232" y="410" type="line"/>
			<point x="254" y="523" type="line"/>
			<point x="502" y="523" type="line"/>
			<point x="516" y="622" type="line"/>
			<point x="170" y="622" type="line"/>
			<point x="91" y="285" type="line"/>
			<point x="288" y="306" type="line"/>
			<point x="354" y="306"/>
			<point x="397" y="258"/>
			<point x="389" y="197" type="curve"/>
			<point x="379" y="127"/>
			<point x="314" y="77"/>
			<point x="243" y="77" type="curve"/>
			<point x="182" y="77"/>
			<point x="138" y="119"/>
			<point x="148" y="184" type="curve" smooth="yes"/>
			<point x="41" y="193" type="line" smooth="yes"/>
			<point x="23" y="66"/>
			<point x="115" y="-31"/>
		</contour>
	</outline>
</glyph>
<glyph name="uni2086" format="2">
	<advance width="682"/>
	<unicode hex="2086"/>
	<outline>
		<contour>
			<point x="263" y="-31" type="curve"/>
			<point x="383" y="-31"/>
			<point x="499" y="55"/>
			<point x="518" y="185" type="curve"/>
			<point x="536" y="317"/>
			<point x="440" y="429"/>
			<point x="299" y="418" type="curve" smooth="yes"/>
			<point x="451" y="623" type="line"/>
			<point x="323" y="626" type="line" smooth="yes"/>
			<point x="99" y="317"/>
			<point x="64" y="275"/>
			<point x="54" y="203" type="curve"/>
			<point x="36" y="72"/>
			<point x="124" y="-31"/>
		</contour>
		<contour>
			<point x="261" y="77" type="curve"/>
			<point x="201" y="77"/>
			<point x="153" y="114"/>
			<point x="159" y="178" type="curve"/>
			<point x="167" y="251"/>
			<point x="233" y="318"/>
			<point x="312" y="318" type="curve"/>
			<point x="369" y="318"/>
			<point x="419" y="276"/>
			<point x="413" y="208" type="curve"/>
			<point x="406" y="133"/>
			<point x="337" y="77"/>
		</contour>
	</outline>
</glyph>
<glyph name="uni2089" format="2">
	<advance width="659.25"/>
	<unicode hex="2089"/>
	<outline>
		<contour>
			<point x="129" y="0" type="line"/>
			<point x="256" y="0" type="line"/>
			<point x="484" y="311" type="line"/>
			<point x="595" y="466"/>
			<point x="500" y="655"/>
			<point x="319" y="655" type="curve" smooth="yes"/>
			<point x="225" y="655"/>
			<point x="133" y="601"/>
			<point x="93" y="510" type="curve" smooth="yes"/>
			<point x="7" y="358"/>
			<point x="112" y="183"/>
			<point x="281" y="205" type="curve"/>
		</contour>
		<contour>
			<point x="270" y="305" type="curve" smooth="yes"/>
			<point x="225" y="305"/>
			<point x="173" y="333"/>
			<point x="168" y="395" type="curve" smooth="yes"/>
			<point x="165" y="475"/>
			<point x="236" y="547"/>
			<point x="320" y="547" type="curve" smooth="yes"/>
			<point x="369" y="547"/>
			<point x="417" y="520"/>
			<point x="423" y="464" type="curve" smooth="yes"/>
			<point x="426" y="381"/>
			<point x="352" y="305"/>
		</contour>
	</outline>
</glyph>
<glyph name="arrowup" format="2">
	<advance width="1157.75"/>
	<unicode hex="2191"/>
	<outline>
		<contour>
			<point x="454" y="142" type="line"/>
			<point x="604" y="142" type="line"/>
			<point x="736" y="1071" type="line"/>
			<point x="1011" y="753" type="line"/>
			<point x="1129" y="860" type="line"/>
			<point x="697" y="1358" type="line"/>
			<point x="131" y="860" type="line"/>
			<point x="226" y="753" type="line"/>
			<point x="586" y="1071" type="line"/>
		</contour>
	</outline>
</glyph>
<glyph name="arrowright" format="2">
	<advance width="1374.25"/>
	<unicode hex="2192"/>
	<outline>
		<contour>
			<point x="763" y="252" type="line"/>
			<point x="1329" y="750" type="line"/>
			<point x="897" y="1248" type="line"/>
			<point x="780" y="1143" type="line"/>
			<point x="1053" y="825" type="line"/>
			<point x="125" y="825" type="line"/>
			<point x="105" y="675" type="line"/>
			<point x="1029" y="675" type="line"/>
			<point x="669" y="358" type="line"/>
		</contour>
	</outline>
</glyph>
<glyph name="arrowdown" format="2">
	<advance width="1157"/>
	<unicode hex="2193"/>
	<outline>
		<contour>
			<point x="530" y="144" type="line"/>
			<point x="1097" y="642" type="line"/>
			<point x="1003" y="748" type="line"/>
			<point x="642" y="431" type="line"/>
			<point x="773" y="1357" type="line"/>
			<point x="623" y="1357" type="line"/>
			<point x="492" y="431" type="line"/>
			<point x="217" y="748" type="line"/>
			<point x="100" y="642" type="line"/>
		</contour>
	</outline>
</glyph>
<glyph name="arrowboth" format="2">
	<advance width="1699.25"/>
	<unicode hex="2194"/>
	<outline>
		<contour>
			<point x="547" y="252" type="line"/>
			<point x="664" y="358" type="line"/>
			<point x="389" y="675" type="line"/>
			<point x="1354" y="675" type="line"/>
			<point x="994" y="358" type="line"/>
			<point x="1088" y="252" type="line"/>
			<point x="1654" y="750" type="line"/>
			<point x="1222" y="1248" type="line"/>
			<point x="1105" y="1143" type="line"/>
			<point x="1378" y="825" type="line"/>
			<point x="414" y="825" type="line"/>
			<point x="775" y="1143" type="line"/>
			<point x="680" y="1248" type="line"/>
			<point x="115" y="750" type="line"/>
		</contour>
	</outline>
</glyph>
<glyph name="uni2198" format="2">
	<advance width="1070.75"/>
	<unicode hex="2198"/>
	<outline>
		<contour>
			<point x="257" y="295" type="line"/>
			<point x="962" y="295" type="line"/>
			<point x="1061" y="1000" type="line"/>
			<point x="911" y="1000" type="line"/>
			<point x="847" y="551" type="line"/>
			<point x="282" y="1205" type="line"/>
			<point x="164" y="1099" type="line"/>
			<point x="729" y="445" type="line"/>
			<point x="278" y="445" type="line"/>
		</contour>
	</outline>
</glyph>
<glyph name="uni2199" format="2">
	<advance width="1070.75"/>
	<unicode hex="2199"/>
	<outline>
		<contour>
			<point x="51" y="295" type="line"/>
			<point x="756" y="295" type="line"/>
			<point x="777" y="445" type="line"/>
			<point x="330" y="445" type="line"/>
			<point x="1075" y="1099" type="line"/>
			<point x="981" y="1205" type="line"/>
			<point x="236" y="551" type="line"/>
			<point x="301" y="1000" type="line"/>
			<point x="150" y="1000" type="line"/>
		</contour>
	</outline>
</glyph>
<glyph name="partialdiff" format="2">
	<advance width="1164.75"/>
	<unicode hex="2202"/>
	<outline>
		<contour>
			<point x="517" y="-26" type="curve"/>
			<point x="809" y="-26"/>
			<point x="1041" y="194"/>
			<point x="1086" y="510" type="curve"/>
			<point x="1159" y="1046"/>
			<point x="912" y="1501"/>
			<point x="489" y="1501" type="curve"/>
			<point x="477" y="1351" type="line"/>
			<point x="766" y="1351"/>
			<point x="901" y="1093"/>
			<point x="922" y="836" type="curve"/>
			<point x="866" y="921"/>
			<point x="767" y="979"/>
			<point x="642" y="979" type="curve"/>
			<point x="369" y="979"/>
			<point x="116" y="758"/>
			<point x="78" y="484" type="curve"/>
			<point x="38" y="203"/>
			<point x="236" y="-26"/>
		</contour>
		<contour>
			<point x="521" y="124" type="curve"/>
			<point x="330" y="124"/>
			<point x="199" y="281"/>
			<point x="225" y="468" type="curve"/>
			<point x="253" y="663"/>
			<point x="435" y="829"/>
			<point x="637" y="829" type="curve"/>
			<point x="829" y="829"/>
			<point x="961" y="674"/>
			<point x="934" y="484" type="curve"/>
			<point x="907" y="292"/>
			<point x="725" y="124"/>
		</contour>
	</outline>
</glyph>
<glyph name="emptyset" format="2">
	<advance width="1160"/>
	<unicode hex="2205"/>
	<outline>
		<contour>
			<point x="256" y="-57" type="line"/>
			<point x="315" y="24" type="line"/>
			<point x="371" y="-6"/>
			<point x="438" y="-26"/>
			<point x="514" y="-26" type="curve" smooth="yes"/>
			<point x="786" y="-26"/>
			<point x="1039" y="206"/>
			<point x="1079" y="492" type="curve" smooth="yes"/>
			<point x="1103" y="664"/>
			<point x="1047" y="814"/>
			<point x="946" y="910" type="curve"/>
			<point x="1011" y="997" type="line"/>
			<point x="906" y="1061" type="line"/>
			<point x="845" y="980" type="line"/>
			<point x="791" y="1010"/>
			<point x="724" y="1028"/>
			<point x="646" y="1028" type="curve" smooth="yes"/>
			<point x="374" y="1028"/>
			<point x="121" y="796"/>
			<point x="81" y="508" type="curve" smooth="yes"/>
			<point x="57" y="339"/>
			<point x="114" y="189"/>
			<point x="216" y="93" type="curve"/>
			<point x="151" y="7" type="line"/>
		</contour>
		<contour>
			<point x="301" y="215" type="line"/>
			<point x="237" y="280"/>
			<point x="204" y="377"/>
			<point x="219" y="485" type="curve" smooth="yes"/>
			<point x="257" y="762"/>
			<point x="550" y="961"/>
			<point x="768" y="860" type="curve"/>
		</contour>
		<contour>
			<point x="393" y="143" type="curve"/>
			<point x="861" y="788" type="line"/>
			<point x="924" y="722"/>
			<point x="956" y="623"/>
			<point x="941" y="515" type="curve" smooth="yes"/>
			<point x="903" y="244"/>
			<point x="620" y="39"/>
		</contour>
	</outline>
</glyph>
<glyph name="summation" format="2">
	<advance width="952.25"/>
	<unicode hex="2211"/>
	<outline>
		<contour>
			<point x="10" y="0" type="line"/>
			<point x="822" y="0" type="line"/>
			<point x="843" y="150" type="line"/>
			<point x="202" y="150" type="line"/>
			<point x="557" y="698" type="line"/>
			<point x="353" y="1246" type="line"/>
			<point x="997" y="1246" type="line"/>
			<point x="1018" y="1396" type="line"/>
			<point x="206" y="1396" type="line"/>
			<point x="186" y="1246" type="line"/>
			<point x="388" y="698" type="line"/>
			<point x="30" y="150" type="line"/>
		</contour>
	</outline>
</glyph>
<glyph name="radical" format="2">
	<advance width="1291.75"/>
	<unicode hex="221A"/>
	<outline>
		<contour>
			<point x="997" y="1400" type="line"/>
			<point x="383" y="189" type="line"/>
			<point x="268" y="708" type="line"/>
			<point x="111" y="708" type="line"/>
			<point x="269" y="0" type="line"/>
			<point x="451" y="0" type="line"/>
			<point x="1084" y="1250" type="line"/>
			<point x="1317" y="1250" type="line"/>
			<point x="1338" y="1400" type="line"/>
		</contour>
	</outline>
</glyph>
<glyph name="infinity" format="2">
	<advance width="1476.75"/>
	<unicode hex="221E"/>
	<outline>
		<contour>
			<point x="371" y="299" type="curve"/>
			<point x="515" y="295"/>
			<point x="599" y="359"/>
			<point x="746" y="510" type="curve"/>
			<point x="848" y="361"/>
			<point x="915" y="298"/>
			<point x="1068" y="298" type="curve"/>
			<point x="1245" y="309"/>
			<point x="1389" y="445"/>
			<point x="1413" y="617" type="curve" smooth="yes"/>
			<point x="1438" y="796"/>
			<point x="1336" y="944"/>
			<point x="1126" y="953" type="curve"/>
			<point x="1000" y="953"/>
			<point x="905" y="883"/>
			<point x="767" y="740" type="curve"/>
			<point x="671" y="881"/>
			<point x="602" y="953"/>
			<point x="446" y="953" type="curve"/>
			<point x="268" y="944"/>
			<point x="123" y="805"/>
			<point x="99" y="634" type="curve" smooth="yes"/>
			<point x="75" y="462"/>
			<point x="180" y="318"/>
		</contour>
		<contour>
			<point x="375" y="438" type="curve"/>
			<point x="284" y="446"/>
			<point x="222" y="518"/>
			<point x="235" y="617" type="curve" smooth="yes"/>
			<point x="249" y="716"/>
			<point x="336" y="803"/>
			<point x="444" y="812" type="curve"/>
			<point x="550" y="813"/>
			<point x="586" y="757"/>
			<point x="671" y="632" type="curve"/>
			<point x="551" y="505"/>
			<point x="491" y="438"/>
		</contour>
		<contour>
			<point x="1069" y="438" type="curve"/>
			<point x="970" y="437"/>
			<point x="937" y="481"/>
			<point x="842" y="618" type="curve"/>
			<point x="964" y="745"/>
			<point x="1024" y="813"/>
			<point x="1129" y="813" type="curve"/>
			<point x="1236" y="804"/>
			<point x="1291" y="729"/>
			<point x="1277" y="634" type="curve" smooth="yes"/>
			<point x="1263" y="534"/>
			<point x="1175" y="447"/>
		</contour>
	</outline>
</glyph>
<glyph name="integral" format="2">
	<advance width="896.5"/>
	<unicode hex="222B"/>
	<outline>
		<contour>
			<point x="209" y="-26" type="curve"/>
			<point x="304" y="-25"/>
			<point x="385" y="20"/>
			<point x="420" y="130" type="curve"/>
			<point x="674" y="1228" type="line"/>
			<point x="682" y="1265"/>
			<point x="720" y="1300"/>
			<point x="763" y="1297" type="curve"/>
			<point x="798" y="1300"/>
			<point x="825" y="1277"/>
			<point x="820" y="1226" type="curve"/>
			<point x="916" y="1208" type="line"/>
			<point x="941" y="1319"/>
			<point x="865" y="1422"/>
			<point x="748" y="1426" type="curve"/>
			<point x="659" y="1429"/>
			<point x="559" y="1367"/>
			<point x="532" y="1270" type="curve"/>
			<point x="277" y="169" type="line"/>
			<point x="266" y="128"/>
			<point x="225" y="98"/>
			<point x="181" y="99" type="curve"/>
			<point x="144" y="105"/>
			<point x="135" y="133"/>
			<point x="141" y="174" type="curve"/>
			<point x="37" y="192" type="line"/>
			<point x="10" y="73"/>
			<point x="92" y="-25"/>
		</contour>
	</outline>
</glyph>
<glyph name="lessequal" format="2">
	<advance width="1160"/>
	<unicode hex="2264"/>
	<outline>
		<contour>
			<point x="1058" y="341" type="line"/>
			<point x="1079" y="496" type="line"/>
			<point x="229" y="749" type="line"/>
			<point x="1151" y="1001" type="line"/>
			<point x="1172" y="1158" type="line"/>
			<point x="132" y="872" type="line"/>
			<point x="98" y="625" type="line"/>
		</contour>
		<contour>
			<point x="10" y="0" type="line"/>
			<point x="1010" y="0" type="line"/>
			<point x="1031" y="150" type="line"/>
			<point x="31" y="150" type="line"/>
		</contour>
	</outline>
</glyph>
<glyph name="greaterequal" format="2">
	<advance width="1160"/>
	<unicode hex="2265"/>
	<outline>
		<contour>
			<point x="59" y="350" type="line"/>
			<point x="1099" y="629" type="line"/>
			<point x="1133" y="876" type="line"/>
			<point x="172" y="1158" type="line"/>
			<point x="151" y="1001" type="line"/>
			<point x="1002" y="754" type="line"/>
			<point x="81" y="505" type="line"/>
		</contour>
		<contour>
			<point x="10" y="0" type="line"/>
			<point x="1010" y="0" type="line"/>
			<point x="1031" y="150" type="line"/>
			<point x="31" y="150" type="line"/>
		</contour>
	</outline>
</glyph>
<glyph name="uniFFFD" format="2">
	<advance width="1630"/>
	<unicode hex="FFFD"/>
	<outline>
		<contour>
			<point x="750" y="-26" type="curve" smooth="yes"/>
			<point x="818" y="-26"/>
			<point x="893" y="-1"/>
			<point x="955" y="53" type="curve" smooth="yes"/>
			<point x="1428" y="467" type="line" smooth="yes"/>
			<point x="1491" y="523"/>
			<point x="1524" y="594"/>
			<point x="1533" y="662" type="curve" smooth="yes"/>
			<point x="1544" y="738"/>
			<point x="1524" y="809"/>
			<point x="1476" y="865" type="curve" smooth="yes"/>
			<point x="1119" y="1279" type="line" smooth="yes"/>
			<point x="1072" y="1335"/>
			<point x="1005" y="1364"/>
			<point x="929" y="1364" type="curve" smooth="yes"/>
			<point x="861" y="1364"/>
			<point x="788" y="1341"/>
			<point x="724" y="1285" type="curve" smooth="yes"/>
			<point x="250" y="871" type="line" smooth="yes"/>
			<point x="190" y="817"/>
			<point x="154" y="746"/>
			<point x="145" y="678" type="curve" smooth="yes"/>
			<point x="134" y="602"/>
			<point x="153" y="529"/>
			<point x="201" y="473" type="curve" smooth="yes"/>
			<point x="559" y="59" type="line" smooth="yes"/>
			<point x="605" y="3"/>
			<point x="674" y="-26"/>
		</contour>
		<contour>
			<point x="787" y="305" type="curve" smooth="yes"/>
			<point x="760" y="305"/>
			<point x="742" y="326"/>
			<point x="746" y="354" type="curve" smooth="yes"/>
			<point x="751" y="388"/>
			<point x="784" y="418"/>
			<point x="820" y="418" type="curve" smooth="yes"/>
			<point x="848" y="418"/>
			<point x="864" y="397"/>
			<point x="861" y="370" type="curve" smooth="yes"/>
			<point x="855" y="335"/>
			<point x="823" y="305"/>
		</contour>
		<contour>
			<point x="765" y="517" type="line"/>
			<point x="765" y="515" type="line" smooth="yes"/>
			<point x="775" y="587"/>
			<point x="828" y="657"/>
			<point x="902" y="688" type="curve" smooth="yes"/>
			<point x="934" y="708"/>
			<point x="959" y="745"/>
			<point x="964" y="785" type="curve" smooth="yes"/>
			<point x="973" y="851"/>
			<point x="927" y="904"/>
			<point x="860" y="904" type="curve" smooth="yes"/>
			<point x="803" y="904"/>
			<point x="751" y="859"/>
			<point x="743" y="797" type="curve"/>
			<point x="628" y="789" type="line"/>
			<point x="646" y="912"/>
			<point x="765" y="1016"/>
			<point x="893" y="1016" type="curve" smooth="yes"/>
			<point x="1012" y="1016"/>
			<point x="1095" y="920"/>
			<point x="1079" y="801" type="curve" smooth="yes"/>
			<point x="1066" y="712"/>
			<point x="1006" y="636"/>
			<point x="929" y="600" type="curve" smooth="yes"/>
			<point x="903" y="582"/>
			<point x="883" y="554"/>
			<point x="878" y="523" type="curve" smooth="yes"/>
			<point x="878" y="517" type="line"/>
		</contour>
	</outline>
</glyph>
